
<!-- width="400" height="266.5914221218962" -->
<svg id="svg" version="1.1" xmlns="http://www.w3.org/2000/svg" xmlns:xlink="http://www.w3.org/1999/xlink"  viewBox="0, 0, 400,266.5914221218962">

<g id="svgg"><path id="path0" d="M176.578 41.985 C 176.167 42.236,175.644 42.857,175.391 43.395 C 174.841 44.569,133.860 171.217,133.860 171.746 C 133.860 172.226,132.349 176.907,131.953 177.652 C 131.788 177.963,130.778 180.916,129.709 184.215 C 127.487 191.073,127.338 192.083,128.386 193.213 L 129.007 193.882 131.722 192.579 C 133.215 191.862,134.561 191.317,134.713 191.368 C 134.886 191.425,134.938 191.326,134.852 191.102 C 134.776 190.906,134.827 190.745,134.965 190.745 C 135.102 190.745,135.194 190.669,135.168 190.576 C 135.142 190.483,135.793 188.375,136.614 185.892 C 150.847 142.825,181.979 45.607,181.888 44.509 C 181.680 41.998,178.801 40.630,176.578 41.985 M57.562 46.501 C 57.562 46.625,57.365 46.727,57.124 46.727 C 56.883 46.727,56.622 46.830,56.544 46.956 C 56.466 47.082,56.014 47.383,55.540 47.625 C 55.065 47.867,54.296 48.425,53.830 48.863 C 53.365 49.302,52.908 49.661,52.815 49.661 C 52.721 49.661,52.581 49.915,52.503 50.226 C 52.425 50.536,52.262 50.790,52.140 50.790 C 52.018 50.790,51.919 50.896,51.919 51.025 C 51.919 51.274,51.675 51.613,50.847 52.515 C 50.521 52.869,50.333 53.368,50.323 53.904 C 50.310 54.557,50.267 54.641,50.126 54.289 C 49.878 53.669,49.711 56.067,49.302 66.140 C 49.219 68.188,49.074 69.966,48.980 70.090 C 48.886 70.214,48.757 72.703,48.692 75.621 C 48.627 78.538,48.502 81.154,48.414 81.433 C 48.286 81.839,48.342 81.941,48.687 81.941 C 50.049 81.941,50.054 88.554,48.694 90.647 C 48.220 91.376,48.074 91.988,47.874 94.074 C 47.739 95.471,47.526 97.706,47.398 99.041 C 47.271 100.375,47.169 102.889,47.172 104.628 C 47.176 106.366,47.131 108.093,47.073 108.465 C 46.757 110.485,46.683 112.587,46.923 112.736 C 47.245 112.935,47.256 113.318,46.939 113.318 C 46.808 113.318,46.763 113.217,46.840 113.093 C 46.916 112.968,46.884 112.867,46.767 112.867 C 46.310 112.867,46.033 116.528,46.469 116.797 C 46.575 116.863,46.614 116.665,46.555 116.358 C 46.415 115.626,46.890 115.017,47.321 115.375 C 47.548 115.563,47.630 115.564,47.630 115.378 C 47.630 115.238,47.538 115.124,47.426 115.124 C 47.315 115.124,47.233 114.770,47.245 114.337 C 47.259 113.861,47.338 113.660,47.445 113.829 C 47.618 114.101,47.728 113.880,47.640 113.437 C 47.616 113.317,47.807 113.409,48.065 113.642 C 48.628 114.152,48.653 114.253,48.168 114.067 C 47.850 113.945,47.839 113.995,48.087 114.458 C 48.257 114.775,48.283 115.019,48.154 115.062 C 48.034 115.102,47.980 115.437,48.034 115.807 C 48.125 116.430,47.974 116.591,47.371 116.513 C 47.290 116.503,47.281 116.710,47.350 116.973 C 47.431 117.285,47.389 117.399,47.229 117.300 C 47.094 117.217,46.920 117.252,46.842 117.378 C 46.764 117.504,46.859 117.607,47.052 117.607 C 47.246 117.607,47.396 117.785,47.386 118.002 C 47.376 118.238,47.323 118.284,47.255 118.115 C 47.192 117.960,47.005 117.833,46.840 117.833 C 46.674 117.833,46.488 117.706,46.425 117.551 C 46.345 117.352,46.306 117.347,46.293 117.535 C 46.283 117.681,46.423 117.948,46.603 118.129 C 46.784 118.309,46.871 118.517,46.797 118.591 C 46.723 118.665,46.829 118.789,47.033 118.868 C 47.369 118.996,47.404 119.896,47.404 128.370 C 47.404 136.024,47.461 137.786,47.715 138.041 C 47.887 138.212,48.096 138.812,48.180 139.374 C 48.264 139.936,48.429 140.455,48.546 140.527 C 48.663 140.600,48.758 141.008,48.758 141.435 C 48.758 141.863,48.844 142.212,48.948 142.212 C 49.118 142.212,49.373 142.886,49.782 144.413 C 49.856 144.692,50.012 144.921,50.128 144.921 C 50.244 144.921,50.339 145.163,50.339 145.458 C 50.339 145.753,50.478 146.110,50.648 146.251 C 50.818 146.392,51.294 147.192,51.705 148.028 C 52.116 148.864,52.587 149.683,52.750 149.847 C 52.914 150.011,53.047 150.290,53.047 150.468 C 53.047 150.645,53.149 150.790,53.273 150.790 C 53.397 150.790,53.499 150.920,53.499 151.079 C 53.499 151.237,53.677 151.527,53.894 151.723 C 54.463 152.237,55.079 153.023,55.079 153.235 C 55.079 153.335,55.917 154.298,56.941 155.374 C 57.966 156.450,59.197 157.778,59.679 158.326 C 60.160 158.873,60.769 159.424,61.033 159.549 C 61.620 159.828,62.425 160.441,63.094 161.117 C 63.370 161.397,63.711 161.625,63.852 161.625 C 63.993 161.625,64.108 161.705,64.108 161.802 C 64.108 161.900,64.438 162.171,64.842 162.406 C 65.245 162.641,65.626 162.898,65.688 162.978 C 65.751 163.058,66.275 163.350,66.853 163.626 C 67.432 163.903,67.962 164.277,68.031 164.457 C 68.101 164.638,68.421 164.786,68.742 164.786 C 69.074 164.786,69.267 164.883,69.187 165.011 C 69.111 165.135,69.189 165.237,69.362 165.237 C 69.534 165.237,70.175 165.491,70.786 165.800 C 71.396 166.110,72.008 166.364,72.144 166.365 C 72.379 166.366,73.476 166.829,74.320 167.283 C 74.535 167.399,74.862 167.494,75.047 167.494 C 75.231 167.494,75.727 167.689,76.150 167.926 C 76.573 168.163,77.513 168.432,78.239 168.523 C 78.965 168.613,79.895 168.876,80.306 169.107 C 80.825 169.398,81.515 169.527,82.569 169.529 C 83.632 169.532,83.984 169.598,83.747 169.752 C 83.507 169.907,83.781 169.972,84.693 169.974 C 85.400 169.976,86.041 170.079,86.117 170.203 C 86.308 170.511,97.291 170.511,97.291 170.203 C 97.291 170.079,97.824 169.976,98.476 169.974 C 99.325 169.971,99.565 169.908,99.323 169.752 C 99.086 169.598,99.439 169.532,100.502 169.529 C 101.612 169.527,102.218 169.406,102.754 169.080 C 103.157 168.835,104.074 168.568,104.791 168.486 C 105.508 168.405,106.095 168.251,106.095 168.142 C 106.095 168.034,106.247 167.946,106.433 167.946 C 106.620 167.946,106.772 167.844,106.772 167.720 C 106.772 167.596,106.967 167.494,107.205 167.494 C 107.443 167.494,107.977 167.325,108.390 167.118 C 109.785 166.418,109.925 166.366,110.381 166.366 C 110.631 166.366,110.835 166.284,110.835 166.185 C 110.835 166.085,111.343 165.821,111.964 165.598 C 112.585 165.374,113.093 165.100,113.093 164.989 C 113.093 164.877,113.240 164.786,113.421 164.786 C 113.601 164.786,114.003 164.532,114.314 164.221 C 114.624 163.911,115.035 163.657,115.227 163.657 C 115.419 163.657,115.576 163.543,115.576 163.405 C 115.576 163.266,115.771 163.204,116.010 163.266 C 116.280 163.337,116.407 163.281,116.345 163.120 C 116.290 162.977,116.603 162.668,117.039 162.433 C 117.476 162.198,117.833 161.920,117.833 161.815 C 117.833 161.711,118.036 161.625,118.284 161.625 C 118.533 161.625,118.736 161.486,118.736 161.316 C 118.736 161.146,119.091 160.765,119.524 160.469 C 119.958 160.174,120.314 159.856,120.314 159.763 C 120.315 159.670,120.424 159.594,120.556 159.594 C 120.786 159.594,122.353 158.069,123.824 156.415 C 124.369 155.802,125.970 153.784,127.481 151.806 C 127.576 151.682,127.856 151.149,128.104 150.621 C 128.352 150.094,128.733 149.605,128.950 149.534 C 129.168 149.463,129.345 149.215,129.345 148.982 C 129.345 148.750,129.439 148.502,129.553 148.431 C 129.668 148.360,129.942 147.821,130.163 147.232 C 130.383 146.644,130.620 146.112,130.688 146.050 C 130.855 145.899,131.392 144.495,131.548 143.801 C 131.617 143.496,131.861 143.045,132.090 142.799 C 132.318 142.554,132.506 142.160,132.506 141.925 C 132.506 141.690,132.763 140.751,133.078 139.839 C 133.551 138.469,133.658 137.256,133.328 136.995 C 133.310 136.981,132.047 136.903,130.520 136.822 C 128.582 136.719,127.688 136.583,127.558 136.373 C 127.225 135.834,118.770 136.076,118.078 136.644 C 117.902 136.789,117.320 137.849,116.784 139.001 C 115.525 141.710,114.986 142.268,113.806 142.079 C 112.938 141.940,111.964 142.246,111.964 142.659 C 111.964 142.771,112.395 142.895,112.921 142.933 C 114.577 143.053,114.362 143.531,111.253 146.648 C 107.470 150.440,102.290 153.514,98.399 154.275 C 96.731 154.601,94.975 155.195,94.870 155.468 C 94.790 155.678,94.074 155.756,92.237 155.756 L 89.715 155.756 89.409 154.721 C 89.108 153.702,88.191 152.370,87.790 152.370 C 87.471 152.370,87.548 153.138,87.916 153.625 C 89.044 155.117,87.693 156.521,86.387 155.215 C 86.053 154.881,85.348 154.570,84.551 154.405 C 77.407 152.922,69.753 147.249,66.276 140.861 C 65.711 139.822,65.706 139.777,66.067 138.858 C 66.493 137.774,66.418 137.603,65.645 137.897 C 64.873 138.190,64.713 138.018,64.224 136.377 C 63.946 135.442,63.616 134.824,63.276 134.601 L 62.754 134.260 62.754 126.623 C 62.754 119.232,62.769 118.977,63.207 118.670 C 63.457 118.495,63.907 117.651,64.208 116.795 C 65.494 113.133,66.787 111.287,68.065 111.287 C 69.567 111.287,70.032 110.754,68.808 110.436 C 67.619 110.128,67.788 109.796,70.575 106.957 C 74.500 102.959,77.247 101.192,82.054 99.574 C 84.226 98.843,85.789 98.191,85.976 97.938 C 86.486 97.245,92.551 97.300,92.551 97.997 C 92.551 98.611,93.705 100.636,94.457 101.342 L 95.034 101.885 95.034 101.389 C 95.034 101.117,94.779 100.490,94.467 99.996 C 93.913 99.118,93.797 98.714,93.869 97.912 C 93.927 97.272,95.636 97.370,96.265 98.049 C 96.554 98.361,97.266 98.700,97.984 98.868 C 104.304 100.347,111.093 105.151,114.850 110.801 C 116.451 113.210,116.503 113.503,115.576 114.898 C 114.883 115.940,114.662 117.009,115.181 116.805 C 115.336 116.744,115.692 116.341,115.973 115.909 C 116.871 114.527,117.270 114.808,118.070 117.383 C 118.537 118.885,118.917 119.720,119.205 119.874 C 119.604 120.088,119.639 120.386,119.639 123.607 C 119.639 128.061,119.521 127.901,122.912 128.058 C 124.278 128.121,125.598 128.226,125.847 128.290 C 126.095 128.355,127.060 128.417,127.991 128.429 C 129.172 128.443,129.582 128.515,129.345 128.668 C 129.084 128.837,129.161 128.892,129.684 128.908 C 130.429 128.931,135.000 128.931,135.271 128.908 C 135.535 128.886,135.478 122.348,135.214 122.348 C 135.090 122.348,134.977 122.525,134.962 122.743 C 134.920 123.356,134.324 119.719,134.167 117.889 C 134.090 116.989,133.938 116.253,133.830 116.253 C 133.723 116.253,133.634 116.005,133.634 115.702 C 133.634 115.399,133.533 115.088,133.409 115.011 C 133.284 114.935,133.183 114.491,133.183 114.025 C 133.183 113.560,133.034 112.982,132.851 112.741 C 132.669 112.500,132.517 112.010,132.513 111.652 C 132.509 111.294,132.328 110.837,132.111 110.636 C 131.748 110.300,131.306 109.363,130.982 108.239 C 130.911 107.991,130.790 107.737,130.713 107.675 C 130.637 107.613,130.384 107.130,130.151 106.603 C 129.919 106.075,129.642 105.643,129.537 105.643 C 129.432 105.643,129.345 105.396,129.345 105.094 C 129.345 104.753,129.183 104.494,128.916 104.409 C 128.680 104.334,128.430 104.046,128.361 103.768 C 128.291 103.491,128.027 103.042,127.774 102.770 C 127.521 102.499,127.314 102.128,127.314 101.947 C 127.314 101.766,127.238 101.584,127.144 101.543 C 127.051 101.501,126.518 100.909,125.959 100.227 C 125.401 99.545,124.588 98.611,124.153 98.153 C 123.719 97.694,123.031 96.957,122.624 96.515 C 122.217 96.073,121.792 95.711,121.680 95.711 C 121.567 95.711,121.411 95.508,121.332 95.260 C 121.253 95.011,121.064 94.808,120.912 94.808 C 120.760 94.808,120.259 94.453,119.798 94.018 C 119.338 93.584,118.870 93.228,118.760 93.228 C 118.649 93.228,118.500 93.076,118.429 92.889 C 118.357 92.703,118.180 92.551,118.036 92.551 C 117.891 92.551,117.609 92.362,117.408 92.132 C 117.207 91.901,116.814 91.640,116.535 91.552 C 116.256 91.464,116.027 91.297,116.027 91.181 C 116.027 91.065,115.824 90.971,115.576 90.971 C 115.327 90.971,115.124 90.869,115.124 90.745 C 115.124 90.621,115.007 90.519,114.863 90.519 C 114.720 90.519,114.269 90.265,113.863 89.955 C 113.456 89.644,113.014 89.391,112.882 89.391 C 112.749 89.391,112.641 89.305,112.641 89.201 C 112.641 89.097,112.233 88.877,111.735 88.712 C 111.237 88.548,110.716 88.278,110.579 88.112 C 110.441 87.946,110.087 87.810,109.792 87.810 C 109.497 87.810,109.255 87.720,109.255 87.610 C 109.255 87.499,108.798 87.274,108.239 87.109 C 107.681 86.944,107.223 86.729,107.223 86.632 C 107.223 86.535,106.989 86.456,106.702 86.456 C 106.416 86.456,105.984 86.307,105.743 86.125 C 105.502 85.942,105.000 85.783,104.628 85.770 C 104.057 85.751,104.022 85.719,104.402 85.570 C 104.703 85.451,104.176 85.339,102.822 85.231 C 101.704 85.142,100.536 85.034,100.226 84.991 C 99.915 84.948,97.935 84.849,95.824 84.770 C 93.713 84.692,91.225 84.525,90.293 84.399 C 88.959 84.219,87.502 84.269,83.409 84.633 C 75.722 85.316,75.183 85.383,75.847 85.573 C 76.353 85.717,76.330 85.737,75.621 85.763 C 75.186 85.780,74.634 85.942,74.393 86.125 C 73.761 86.602,73.561 86.534,73.721 85.896 C 73.825 85.481,73.701 85.145,73.245 84.603 C 72.658 83.905,72.636 83.789,72.770 82.194 C 72.848 81.273,72.912 80.077,72.912 79.537 C 72.912 78.566,72.920 78.555,73.702 78.555 L 74.492 78.555 74.508 74.210 C 74.518 71.573,74.600 70.042,74.718 70.316 C 74.831 70.579,74.918 67.313,74.928 62.472 C 74.938 57.081,74.865 54.176,74.718 54.176 C 74.594 54.176,74.492 53.938,74.492 53.647 C 74.492 53.356,74.289 52.934,74.041 52.709 C 73.792 52.484,73.589 52.163,73.589 51.995 C 73.589 51.354,70.487 48.154,69.244 47.513 C 68.778 47.272,68.397 46.997,68.397 46.901 C 68.397 46.805,68.149 46.727,67.846 46.727 C 67.543 46.727,67.232 46.625,67.156 46.501 C 67.070 46.362,65.197 46.275,62.289 46.275 C 59.288 46.275,57.562 46.358,57.562 46.501 " stroke="none" fill="#36b1e4" fill-rule="evenodd"></path><path id="path1" d="M86.288 97.958 C 86.062 98.201,84.763 98.767,83.401 99.215 C 77.512 101.155,75.181 102.575,70.992 106.773 C 67.824 109.948,67.704 110.236,69.450 110.462 C 70.968 110.658,98.056 110.919,98.755 110.743 C 99.507 110.555,99.508 109.736,98.758 108.845 C 98.448 108.476,98.194 108.125,98.194 108.064 C 98.194 107.798,94.501 101.637,94.037 101.129 C 93.476 100.514,92.325 98.284,92.325 97.811 C 92.325 97.270,86.804 97.404,86.288 97.958 M93.905 98.199 C 93.905 98.574,94.168 99.296,94.489 99.805 C 94.810 100.313,95.206 101.108,95.369 101.571 C 95.734 102.604,96.568 104.283,96.945 104.740 C 97.099 104.927,97.465 105.536,97.758 106.095 C 98.052 106.653,98.411 107.263,98.555 107.449 C 98.699 107.635,99.351 108.804,100.005 110.045 C 100.658 111.287,101.381 112.545,101.612 112.841 C 101.843 113.137,102.032 113.456,102.032 113.551 C 102.032 113.689,105.191 119.228,106.662 121.670 C 106.849 121.981,107.369 122.920,107.818 123.758 C 108.974 125.917,109.336 125.867,110.822 123.342 C 111.450 122.275,111.964 121.360,111.964 121.308 C 111.964 121.256,112.484 120.383,113.121 119.368 C 113.757 118.353,114.432 117.059,114.621 116.492 C 114.809 115.926,115.254 115.062,115.608 114.572 C 116.469 113.383,116.479 113.426,114.685 110.771 C 111.119 105.496,105.547 101.322,99.661 99.518 C 96.491 98.546,96.174 98.412,95.920 97.937 C 95.498 97.148,93.905 97.355,93.905 98.199 M69.413 111.285 C 69.165 111.392,68.546 111.488,68.037 111.497 C 66.762 111.518,65.325 113.650,64.220 117.156 C 64.005 117.839,63.587 118.630,63.292 118.914 L 62.754 119.431 62.754 126.606 L 62.754 133.781 63.326 134.319 C 63.662 134.634,64.090 135.489,64.364 136.390 C 64.718 137.555,64.929 137.923,65.243 137.923 C 65.644 137.923,67.043 136.452,67.043 136.029 C 67.043 135.913,67.332 135.352,67.686 134.783 C 68.039 134.213,69.072 132.477,69.980 130.926 C 70.889 129.374,71.904 127.698,72.235 127.201 C 72.567 126.704,73.325 125.384,73.920 124.266 C 74.515 123.149,75.130 122.082,75.288 121.896 C 75.446 121.710,75.772 121.202,76.012 120.767 C 77.407 118.248,77.860 117.451,79.402 114.804 C 80.708 112.564,81.049 111.806,80.876 111.531 C 80.620 111.126,70.291 110.903,69.413 111.285 M115.974 116.102 C 114.230 118.669,113.606 119.638,113.120 120.542 C 112.820 121.100,111.962 122.523,111.215 123.702 C 110.467 124.881,109.480 126.507,109.022 127.314 C 107.812 129.446,104.088 135.882,103.114 137.527 C 102.654 138.304,102.150 139.193,101.994 139.503 C 101.838 139.814,101.529 140.310,101.307 140.606 C 101.085 140.902,100.903 141.435,100.903 141.791 L 100.903 142.438 92.127 142.438 C 81.798 142.438,81.969 142.388,83.678 144.888 C 83.988 145.341,84.542 146.270,84.909 146.953 C 86.375 149.681,87.756 151.951,88.308 152.540 C 88.963 153.239,89.842 154.882,89.842 155.409 C 89.842 155.965,94.030 155.916,94.330 155.355 C 94.517 155.006,97.209 154.176,98.156 154.176 C 99.116 154.176,103.847 152.059,106.433 150.472 C 108.403 149.264,113.765 144.190,113.768 143.532 C 113.770 143.030,112.572 142.890,106.659 142.702 C 100.847 142.517,101.388 142.258,107.901 142.108 C 115.927 141.923,114.924 142.306,116.697 138.754 C 117.306 137.535,117.901 136.418,118.021 136.271 C 118.140 136.125,118.368 135.567,118.527 135.032 C 118.685 134.497,119.001 133.960,119.227 133.839 C 119.871 133.494,119.861 120.832,119.216 120.280 C 118.769 119.897,118.305 118.778,117.711 116.648 C 117.280 115.100,116.765 114.938,115.974 116.102 M46.275 118.265 C 46.275 118.606,46.894 119.251,47.124 119.149 C 47.216 119.108,47.063 118.830,46.783 118.531 C 46.504 118.232,46.275 118.112,46.275 118.265 M46.275 126.298 C 46.275 126.509,46.489 126.637,46.840 126.637 C 47.191 126.637,47.404 126.509,47.404 126.298 C 47.404 126.087,47.191 125.959,46.840 125.959 C 46.489 125.959,46.275 126.087,46.275 126.298 M71.977 128.485 C 71.818 128.772,71.532 129.277,71.341 129.607 C 71.150 129.938,70.722 130.706,70.391 131.314 C 70.059 131.922,69.038 133.696,68.122 135.257 C 65.833 139.155,65.688 139.642,66.435 140.917 C 69.898 146.825,76.293 151.845,82.731 153.708 C 83.725 153.995,85.075 154.386,85.733 154.576 C 86.396 154.768,87.028 155.107,87.151 155.339 C 87.479 155.951,87.966 155.847,88.104 155.135 C 88.178 154.753,88.070 154.255,87.821 153.837 C 87.599 153.465,87.354 152.894,87.278 152.569 C 87.202 152.244,86.790 151.381,86.364 150.650 C 85.030 148.368,81.723 142.496,80.784 140.745 C 80.518 140.248,79.816 139.029,79.224 138.036 C 77.488 135.125,76.995 134.259,76.462 133.183 C 76.186 132.624,75.873 132.065,75.767 131.941 C 75.661 131.817,75.099 130.903,74.517 129.910 C 73.335 127.891,72.549 127.450,71.977 128.485 " stroke="none" fill="#f8fafb" fill-rule="evenodd"></path><path id="path2" d="M130.460 67.325 C 130.453 67.480,130.021 67.916,129.501 68.293 C 128.981 68.671,128.352 69.302,128.104 69.697 C 127.856 70.091,127.475 70.475,127.257 70.550 C 127.040 70.624,126.862 70.856,126.861 71.065 C 126.861 71.274,126.610 71.851,126.304 72.348 C 125.998 72.844,125.745 73.428,125.741 73.646 C 125.737 73.863,125.632 74.041,125.508 74.041 C 125.384 74.041,125.282 74.199,125.282 74.393 C 125.282 74.586,125.181 74.682,125.056 74.605 C 124.912 74.516,124.831 75.205,124.831 76.510 L 124.831 78.555 99.244 78.555 L 73.658 78.555 73.511 81.120 C 73.417 82.773,73.453 83.936,73.612 84.393 L 73.859 85.102 75.699 85.102 C 77.928 85.102,80.611 84.786,83.634 84.167 C 86.054 83.671,89.204 83.678,92.777 84.186 C 96.909 84.774,100.745 84.927,113.684 85.024 C 126.751 85.121,127.490 85.106,127.636 84.726 C 127.720 84.505,127.885 83.102,128.002 81.609 C 128.249 78.465,128.455 77.321,128.942 76.397 C 129.135 76.032,129.574 75.183,129.918 74.510 C 130.844 72.699,131.792 71.632,132.670 71.411 C 132.952 71.341,133.183 71.192,133.183 71.082 C 133.183 70.966,138.858 70.880,146.514 70.880 C 154.113 70.880,159.793 70.966,159.724 71.079 C 159.656 71.188,159.920 71.341,160.311 71.419 C 160.701 71.497,161.162 71.763,161.336 72.011 C 161.509 72.258,161.746 72.460,161.861 72.460 C 162.178 72.460,162.980 73.202,162.980 73.495 C 162.980 73.648,163.209 73.708,163.544 73.644 C 164.064 73.545,164.108 73.439,164.108 72.308 C 164.108 71.632,164.018 71.135,163.908 71.203 C 163.798 71.272,163.352 70.922,162.918 70.427 C 162.484 69.931,162.069 69.526,161.997 69.526 C 161.925 69.526,161.544 69.211,161.151 68.826 C 160.757 68.441,160.144 68.025,159.789 67.901 C 159.433 67.777,159.142 67.533,159.142 67.359 C 159.142 66.915,130.482 66.881,130.460 67.325 M48.081 82.393 C 48.081 82.517,47.928 82.619,47.741 82.619 C 47.553 82.619,47.078 82.926,46.686 83.301 C 46.293 83.677,45.735 84.043,45.448 84.115 C 45.160 84.188,44.980 84.338,45.049 84.448 C 45.117 84.559,45.039 84.650,44.876 84.650 C 44.712 84.650,44.304 84.904,43.969 85.214 C 43.634 85.525,43.255 85.779,43.125 85.779 C 42.995 85.779,42.889 85.874,42.889 85.991 C 42.889 86.107,42.051 87.052,41.027 88.090 C 40.003 89.128,38.962 90.269,38.713 90.626 C 38.465 90.982,37.884 91.688,37.421 92.194 C 36.959 92.701,36.578 93.242,36.575 93.397 C 36.572 93.552,36.480 93.679,36.371 93.679 C 36.261 93.679,36.039 94.010,35.876 94.413 C 35.713 94.817,35.447 95.228,35.284 95.327 C 35.122 95.427,34.989 95.659,34.989 95.845 C 34.989 96.030,34.887 96.304,34.763 96.454 C 34.109 97.245,32.992 99.829,32.846 100.890 C 32.733 101.712,32.505 102.278,32.141 102.643 L 31.603 103.181 31.603 127.910 C 31.603 151.667,31.619 152.663,32.023 153.238 C 32.254 153.568,32.572 154.396,32.728 155.079 C 33.025 156.374,34.394 159.479,34.771 159.712 C 34.891 159.786,34.989 159.982,34.989 160.149 C 34.989 160.425,35.743 161.677,37.074 163.609 C 37.520 164.257,38.565 165.483,40.350 167.452 C 40.629 167.760,40.858 168.092,40.858 168.189 C 40.858 168.287,41.056 168.430,41.298 168.506 C 41.540 168.583,41.800 168.844,41.877 169.086 C 41.954 169.328,42.112 169.526,42.227 169.526 C 42.574 169.526,43.368 170.429,43.225 170.660 C 43.151 170.779,43.248 170.815,43.442 170.741 C 43.635 170.667,43.792 170.704,43.792 170.823 C 43.792 170.943,44.249 171.330,44.808 171.683 C 45.367 172.036,45.824 172.406,45.824 172.506 C 45.824 172.605,45.976 172.686,46.163 172.686 C 46.349 172.686,46.502 172.762,46.503 172.856 C 46.504 172.949,46.962 173.225,47.519 173.470 C 48.077 173.716,48.533 173.988,48.533 174.076 C 48.533 174.164,48.761 174.306,49.041 174.392 C 49.320 174.478,49.730 174.739,49.952 174.972 C 50.174 175.204,50.606 175.395,50.912 175.395 C 51.217 175.395,51.468 175.471,51.469 175.564 C 51.471 175.784,52.579 176.298,53.049 176.298 C 53.249 176.298,53.610 176.447,53.851 176.629 C 54.092 176.812,54.608 176.964,54.998 176.968 C 55.416 176.972,55.761 177.115,55.838 177.314 C 55.953 177.613,60.395 177.652,93.955 177.649 L 131.941 177.646 132.906 174.545 C 133.436 172.840,133.868 171.369,133.865 171.275 C 133.862 171.182,117.556 171.106,97.630 171.106 C 73.627 171.106,61.400 171.030,61.400 170.880 C 61.400 170.756,60.993 170.655,60.497 170.655 C 60.000 170.655,59.594 170.553,59.594 170.429 C 59.594 170.305,59.289 170.203,58.916 170.203 C 58.544 170.203,58.239 170.102,58.239 169.977 C 58.239 169.853,57.881 169.752,57.442 169.752 C 56.942 169.752,56.597 169.626,56.515 169.413 C 56.444 169.227,56.142 169.074,55.845 169.074 C 55.548 169.074,55.305 168.985,55.305 168.875 C 55.305 168.765,55.076 168.619,54.797 168.550 C 53.742 168.290,52.596 167.829,52.596 167.665 C 52.596 167.571,52.444 167.494,52.257 167.494 C 52.071 167.494,51.919 167.393,51.919 167.269 C 51.919 167.144,51.741 167.041,51.524 167.039 C 51.183 167.036,51.175 167.003,51.467 166.799 C 51.734 166.612,51.701 166.591,51.310 166.701 C 50.973 166.795,50.664 166.691,50.350 166.377 C 50.095 166.123,49.786 165.914,49.661 165.914 C 49.537 165.914,49.436 165.831,49.436 165.730 C 49.436 165.629,49.080 165.377,48.646 165.170 C 48.211 164.962,47.856 164.690,47.856 164.563 C 47.856 164.437,47.710 164.334,47.532 164.334 C 47.354 164.334,47.146 164.136,47.069 163.894 C 46.992 163.652,46.732 163.391,46.490 163.315 C 46.248 163.238,46.050 163.095,46.050 162.997 C 46.050 162.900,45.821 162.566,45.542 162.257 C 44.359 160.946,44.018 160.474,44.018 160.149 C 44.018 159.960,43.878 159.752,43.708 159.686 C 43.537 159.621,43.209 159.218,42.979 158.790 C 42.749 158.363,42.483 158.014,42.387 158.014 C 42.291 158.014,42.212 157.699,42.212 157.315 C 42.212 156.807,42.089 156.585,41.761 156.499 C 41.469 156.422,41.309 156.191,41.309 155.843 C 41.309 155.547,41.217 155.305,41.103 155.305 C 40.990 155.305,40.829 154.899,40.745 154.403 C 40.661 153.907,40.500 153.444,40.387 153.374 C 40.273 153.304,40.181 152.948,40.181 152.583 C 40.181 152.217,40.104 151.919,40.010 151.919 C 39.687 151.919,39.296 150.674,39.144 149.159 C 39.059 148.324,38.903 147.695,38.796 147.762 C 38.688 147.828,38.600 147.273,38.600 146.528 C 38.600 145.783,38.497 145.109,38.371 145.031 C 38.064 144.842,38.076 111.584,38.383 111.394 C 38.503 111.321,38.600 110.600,38.600 109.793 C 38.600 108.986,38.688 108.379,38.794 108.445 C 38.901 108.511,39.054 107.859,39.134 106.995 C 39.222 106.048,39.459 105.132,39.730 104.687 C 39.977 104.282,40.179 103.733,40.180 103.468 C 40.180 103.203,40.332 102.695,40.518 102.340 C 40.703 101.984,40.856 101.515,40.856 101.298 C 40.857 101.081,40.959 100.903,41.084 100.903 C 41.208 100.903,41.317 100.725,41.327 100.508 C 41.337 100.291,41.642 99.656,42.006 99.097 C 42.369 98.538,42.729 97.903,42.804 97.686 C 42.880 97.469,43.032 97.291,43.141 97.291 C 43.251 97.291,43.341 97.139,43.341 96.953 C 43.341 96.766,43.419 96.614,43.515 96.614 C 43.611 96.614,43.891 96.238,44.136 95.777 C 44.382 95.317,44.836 94.669,45.147 94.337 C 45.457 94.005,46.028 93.376,46.415 92.941 C 46.802 92.505,47.311 92.088,47.546 92.013 C 48.772 91.624,49.495 82.167,48.299 82.167 C 48.179 82.167,48.081 82.269,48.081 82.393 M315.632 90.011 C 313.050 90.066,312.415 90.143,312.415 90.398 C 312.415 90.573,313.380 95.107,314.560 100.475 C 317.129 112.166,317.145 109.759,314.447 117.381 C 313.205 120.890,312.190 123.850,312.190 123.961 C 312.190 124.075,314.316 124.136,317.069 124.101 L 321.948 124.041 324.301 117.381 C 326.483 111.202,326.723 110.649,327.625 109.707 C 329.182 108.079,345.228 90.667,345.569 90.235 C 345.862 89.864,345.582 89.842,340.550 89.842 L 335.220 89.842 330.095 95.819 C 327.277 99.106,324.924 101.749,324.867 101.691 C 324.767 101.592,323.037 90.704,323.029 90.124 C 323.026 89.915,322.482 89.855,320.937 89.892 C 319.788 89.919,317.401 89.973,315.632 90.011 M279.307 90.235 L 277.462 90.311 277.020 91.600 C 276.469 93.208,265.775 123.443,265.567 123.984 C 265.425 124.353,265.741 124.379,270.348 124.375 L 275.282 124.371 281.264 107.408 C 284.554 98.078,287.280 90.360,287.321 90.256 C 287.392 90.078,283.385 90.068,279.307 90.235 M295.559 90.235 L 293.715 90.311 293.273 91.600 C 292.720 93.211,282.028 123.444,281.819 123.986 C 281.674 124.363,282.245 124.380,292.663 124.325 L 303.659 124.266 305.169 119.977 L 306.678 115.688 300.661 115.576 L 294.645 115.463 299.120 102.822 C 301.582 95.869,303.599 90.155,303.604 90.124 C 303.614 90.055,298.092 90.131,295.559 90.235 M233.023 90.473 C 232.765 90.638,215.810 124.079,215.804 124.436 C 215.803 124.529,217.970 124.605,220.621 124.605 L 225.442 124.605 230.046 115.137 C 233.196 108.659,234.699 105.791,234.803 106.052 C 234.933 106.374,236.799 123.488,236.796 124.323 C 236.795 124.521,237.250 124.605,238.324 124.605 L 239.853 124.605 247.218 115.519 C 251.269 110.522,254.790 106.179,255.042 105.869 L 255.501 105.305 255.276 106.321 C 253.844 112.779,251.467 123.870,251.467 124.093 C 251.467 124.315,252.550 124.379,256.321 124.379 C 259.122 124.379,261.174 124.291,261.174 124.172 C 261.174 124.058,262.698 116.471,264.560 107.314 C 266.422 98.156,267.946 90.580,267.946 90.478 C 267.946 90.377,265.786 90.293,263.146 90.293 L 258.346 90.293 251.238 99.322 C 245.834 106.188,244.095 108.256,243.979 107.956 C 243.895 107.740,243.562 104.058,243.239 99.774 C 242.915 95.491,242.594 91.606,242.524 91.140 L 242.398 90.293 237.847 90.297 C 235.344 90.299,233.173 90.378,233.023 90.473 M190.726 107.601 C 183.722 116.996,177.965 124.741,177.934 124.813 C 177.903 124.885,180.237 124.893,183.120 124.831 L 188.362 124.718 190.022 122.348 C 190.936 121.044,191.751 119.864,191.835 119.726 C 191.936 119.558,193.997 119.421,198.049 119.312 L 204.111 119.150 203.947 121.991 L 203.783 124.831 209.115 124.831 L 214.447 124.831 214.446 124.097 C 214.446 123.694,214.091 116.253,213.658 107.562 C 213.225 98.871,212.870 91.481,212.869 91.140 L 212.867 90.519 208.164 90.519 L 203.461 90.519 190.726 107.601 M170.955 90.913 L 169.110 90.988 168.668 92.277 C 168.114 93.893,157.423 124.122,157.213 124.666 C 157.068 125.042,157.351 125.062,161.975 125.004 L 166.891 124.944 168.968 119.074 L 171.045 113.205 176.549 113.145 L 182.054 113.084 183.409 109.196 C 184.153 107.058,184.796 105.181,184.836 105.024 C 184.893 104.802,183.725 104.740,179.451 104.740 C 174.341 104.740,174.003 104.715,174.153 104.345 C 174.242 104.128,174.598 103.138,174.944 102.144 C 175.289 101.151,175.644 100.162,175.732 99.947 C 175.877 99.591,176.450 99.550,181.999 99.496 L 188.106 99.436 188.498 98.307 C 188.714 97.686,189.404 95.731,190.031 93.962 L 191.172 90.745 181.985 90.791 C 176.933 90.816,171.969 90.871,170.955 90.913 M204.289 106.772 L 204.289 111.738 200.771 111.738 C 198.837 111.738,197.287 111.657,197.329 111.558 C 197.440 111.291,204.146 101.806,204.223 101.806 C 204.259 101.806,204.289 104.041,204.289 106.772 M268.956 126.016 C 268.898 126.171,268.552 127.187,268.187 128.273 L 267.523 130.248 270.171 130.248 L 272.819 130.248 273.460 128.273 C 273.813 127.187,274.150 126.171,274.208 126.016 C 274.290 125.800,273.696 125.734,271.687 125.734 C 269.792 125.734,269.031 125.812,268.956 126.016 M212.775 129.515 C 212.297 130.973,211.885 132.194,211.857 132.226 C 211.830 132.259,211.440 132.132,210.990 131.944 C 204.478 129.223,195.027 138.682,198.249 144.695 C 199.528 147.081,203.674 147.936,206.819 146.462 C 208.066 145.877,208.111 145.872,208.247 146.301 C 208.375 146.703,208.568 146.738,210.345 146.679 L 212.302 146.614 215.620 136.795 C 217.445 131.394,218.943 126.950,218.950 126.919 C 218.956 126.888,217.765 126.862,216.302 126.862 L 213.642 126.862 212.775 129.515 M321.630 127.626 C 318.178 129.046,316.638 131.925,317.452 135.440 C 317.625 136.189,317.591 136.253,316.816 136.669 C 312.098 139.197,310.894 145.365,314.824 146.866 C 316.250 147.411,319.510 147.208,321.358 146.460 C 322.680 145.925,322.750 145.918,322.996 146.314 C 323.262 146.739,328.595 146.979,328.403 146.558 C 328.361 146.464,327.942 145.646,327.472 144.739 L 326.618 143.089 327.607 141.990 C 328.437 141.066,330.248 138.062,330.248 137.608 C 330.248 137.533,329.258 137.473,328.047 137.474 L 325.847 137.477 325.409 138.390 C 324.794 139.673,324.696 139.669,324.021 138.336 C 323.691 137.684,323.523 137.118,323.648 137.076 C 327.711 135.722,330.658 130.714,328.735 128.429 C 327.493 126.953,324.177 126.578,321.630 127.626 M156.545 128.047 C 155.739 130.310,150.339 146.404,150.339 146.540 C 150.339 146.643,151.549 146.727,153.029 146.727 L 155.719 146.727 156.078 145.767 C 156.276 145.240,156.675 144.097,156.964 143.228 L 157.489 141.648 160.065 141.528 C 168.335 141.145,173.998 130.853,167.445 128.116 C 166.334 127.652,156.707 127.591,156.545 128.047 M256.785 131.157 C 252.471 134.554,252.325 134.691,252.044 135.609 C 251.895 136.096,251.944 136.117,253.210 136.117 L 254.532 136.117 253.454 139.334 C 251.454 145.302,252.213 146.727,257.394 146.727 L 259.952 146.727 260.594 144.752 C 260.946 143.665,261.283 142.650,261.341 142.494 C 261.418 142.291,261.121 142.212,260.280 142.212 C 257.978 142.212,257.902 141.984,259.048 138.544 L 259.857 136.117 261.623 136.117 L 263.388 136.117 264.087 134.187 C 264.471 133.125,264.786 132.211,264.786 132.155 C 264.786 132.100,263.973 132.054,262.980 132.054 C 261.986 132.054,261.174 132.022,261.174 131.984 C 261.174 131.945,261.479 131.012,261.851 129.910 C 262.223 128.808,262.528 127.875,262.528 127.836 C 262.528 127.018,260.694 128.079,256.785 131.157 M324.248 130.837 C 325.093 131.161,324.483 132.577,323.142 133.406 C 322.172 134.005,321.896 133.857,321.896 132.738 C 321.896 131.454,323.171 130.424,324.248 130.837 M188.242 131.917 C 183.785 133.198,180.225 137.271,179.961 141.390 C 179.342 151.041,195.499 147.958,197.305 138.081 C 198.170 133.346,193.743 130.335,188.242 131.917 M241.535 132.118 C 234.425 134.561,231.168 143.768,236.451 146.489 C 240.498 148.572,247.008 146.029,249.619 141.343 L 250.142 140.406 247.517 140.406 C 244.901 140.406,244.890 140.409,244.345 141.057 C 243.396 142.184,241.514 142.762,240.304 142.298 C 238.763 141.707,239.314 138.554,241.211 137.107 C 242.841 135.863,245.598 136.259,245.598 137.737 C 245.598 138.112,245.831 138.149,248.184 138.149 L 250.770 138.149 250.924 137.326 C 251.737 132.993,246.862 130.289,241.535 132.118 M279.664 131.917 C 275.207 133.198,271.648 137.271,271.383 141.390 C 270.764 151.041,286.921 147.958,288.727 138.081 C 289.592 133.346,285.165 130.335,279.664 131.917 M299.418 132.032 C 298.787 132.259,298.012 132.615,297.695 132.822 C 297.133 133.190,297.115 133.186,296.975 132.627 C 296.835 132.071,296.775 132.054,294.954 132.054 L 293.076 132.054 290.666 139.221 C 289.340 143.163,288.256 146.468,288.258 146.565 C 288.260 146.662,289.447 146.713,290.895 146.678 L 293.528 146.614 294.939 142.387 C 296.732 137.016,297.368 136.117,299.379 136.117 C 301.078 136.117,301.060 136.541,299.125 142.194 L 297.574 146.727 300.223 146.727 L 302.872 146.727 304.531 141.930 C 306.905 135.066,306.901 133.199,304.510 131.998 C 303.455 131.468,300.937 131.485,299.418 132.032 M169.898 139.221 C 168.572 143.163,167.489 146.468,167.491 146.565 C 167.493 146.662,168.677 146.713,170.123 146.678 L 172.751 146.614 174.144 142.484 C 175.915 137.234,176.149 136.948,178.772 136.829 L 180.563 136.748 181.348 134.401 L 182.134 132.054 180.604 132.054 C 178.962 132.054,177.895 132.327,176.940 132.992 C 176.144 133.546,176.072 133.524,176.072 132.731 L 176.072 132.054 174.190 132.054 L 172.309 132.054 169.898 139.221 M218.457 136.625 C 216.719 141.875,216.561 142.646,216.932 144.028 C 218.013 148.048,225.067 148.344,229.144 144.541 C 230.872 142.929,231.289 142.119,233.101 136.856 L 234.753 132.054 232.068 132.054 L 229.383 132.054 228.091 135.948 C 226.205 141.636,225.688 142.438,223.913 142.438 C 221.965 142.438,221.957 141.959,223.815 136.518 C 224.622 134.154,225.282 132.183,225.282 132.137 C 225.282 132.091,224.087 132.054,222.626 132.054 L 219.969 132.054 218.457 136.625 M264.480 139.221 C 263.155 143.163,262.071 146.468,262.073 146.565 C 262.075 146.662,263.262 146.713,264.710 146.678 L 267.344 146.614 269.771 139.334 L 272.199 132.054 269.545 132.054 L 266.891 132.054 264.480 139.221 M164.026 133.085 C 164.543 133.874,163.896 135.523,162.772 136.281 C 161.895 136.872,158.996 137.060,159.198 136.512 C 159.255 136.357,159.579 135.392,159.918 134.368 L 160.534 132.506 162.090 132.506 C 163.512 132.506,163.679 132.556,164.026 133.085 M209.400 136.825 C 210.900 138.234,209.069 141.755,206.471 142.457 C 203.836 143.170,202.404 140.883,203.970 138.467 C 205.345 136.346,208.027 135.535,209.400 136.825 M191.347 136.925 C 193.036 138.613,190.421 142.437,187.585 142.427 C 185.317 142.419,184.733 140.659,186.221 138.313 C 187.433 136.402,190.101 135.679,191.347 136.925 M282.769 136.925 C 284.458 138.613,281.843 142.437,279.007 142.427 C 276.739 142.419,276.155 140.659,277.643 138.313 C 278.855 136.402,281.523 135.679,282.769 136.925 M319.984 140.998 C 320.910 142.653,320.878 142.755,319.354 143.012 C 317.263 143.365,316.813 141.898,318.467 140.124 C 319.186 139.353,319.007 139.250,319.984 140.998 M173.245 151.072 C 173.187 151.227,172.841 152.243,172.476 153.330 L 171.812 155.305 174.460 155.305 L 177.108 155.305 177.749 153.330 C 178.102 152.243,178.439 151.227,178.497 151.072 C 178.579 150.857,177.984 150.790,175.976 150.790 C 174.081 150.790,173.320 150.869,173.245 151.072 M181.264 151.987 C 181.264 152.025,179.791 156.401,177.991 161.711 C 176.191 167.021,174.718 171.463,174.718 171.582 C 174.718 171.710,175.779 171.772,177.342 171.734 L 179.967 171.670 183.290 161.795 L 186.613 151.919 183.939 151.919 C 182.468 151.919,181.264 151.950,181.264 151.987 M255.305 151.987 C 255.305 152.025,253.832 156.401,252.032 161.711 C 250.231 167.021,248.758 171.463,248.758 171.582 C 248.758 171.710,249.823 171.772,251.392 171.734 L 254.025 171.670 255.436 167.443 C 257.228 162.073,257.865 161.174,259.876 161.174 C 261.575 161.174,261.557 161.597,259.622 167.250 L 258.070 171.783 260.720 171.783 L 263.369 171.783 265.027 166.986 C 267.327 160.330,267.364 158.587,265.237 157.150 C 264.181 156.437,261.162 156.518,259.650 157.300 C 259.122 157.574,258.691 157.756,258.691 157.707 C 258.691 157.657,259.146 156.334,259.701 154.767 L 260.712 151.919 258.008 151.919 C 256.521 151.919,255.305 151.950,255.305 151.987 M308.578 151.987 C 308.578 152.025,307.105 156.401,305.305 161.711 C 303.505 167.021,302.032 171.463,302.032 171.582 C 302.032 171.710,303.093 171.772,304.656 171.734 L 307.280 171.670 310.604 161.795 L 313.927 151.919 311.252 151.919 C 309.781 151.919,308.578 151.950,308.578 151.987 M226.072 152.401 C 221.567 152.824,217.980 156.210,217.960 160.061 C 217.948 162.252,218.768 162.994,222.460 164.136 C 225.584 165.101,225.793 165.336,224.661 166.602 C 223.415 167.996,220.772 167.640,221.076 166.119 L 221.208 165.463 218.405 165.463 C 215.316 165.463,215.386 165.429,215.198 167.017 C 214.329 174.355,227.237 174.085,230.621 166.694 C 232.171 163.307,231.024 161.213,226.975 160.038 C 224.473 159.312,223.928 159.011,223.928 158.352 C 223.928 157.950,224.145 157.649,224.661 157.334 C 225.987 156.525,227.314 156.869,227.314 158.021 L 227.314 158.691 230.009 158.691 C 232.960 158.691,232.900 158.719,233.100 157.259 C 233.596 153.643,231.115 151.929,226.072 152.401 M158.125 153.104 C 157.296 155.432,151.919 171.462,151.919 171.603 C 151.919 171.710,153.155 171.769,154.665 171.734 L 157.412 171.670 158.465 168.510 L 159.518 165.350 162.639 165.237 L 165.761 165.124 166.392 163.245 C 166.739 162.211,167.085 161.170,167.161 160.931 C 167.293 160.517,167.156 160.497,164.257 160.497 L 161.215 160.497 161.692 159.029 L 162.169 157.562 165.572 157.562 L 168.975 157.562 169.807 155.192 L 170.638 152.822 164.432 152.822 C 159.670 152.822,158.202 152.887,158.125 153.104 M193.454 157.384 C 192.647 157.783,191.922 158.143,191.844 158.184 C 191.766 158.225,191.637 158.001,191.558 157.685 C 191.418 157.127,191.359 157.111,189.536 157.111 L 187.659 157.111 185.248 164.278 C 183.922 168.220,182.839 171.524,182.841 171.621 C 182.843 171.718,184.029 171.769,185.477 171.734 L 188.111 171.670 189.536 167.399 C 191.181 162.471,191.697 161.538,192.992 161.150 C 195.010 160.546,195.026 161.326,193.115 167.043 C 192.308 169.457,191.648 171.511,191.648 171.607 C 191.648 171.704,192.793 171.783,194.193 171.783 L 196.739 171.783 197.834 168.454 C 199.832 162.385,200.374 161.375,201.802 161.062 C 203.745 160.635,203.745 161.126,201.806 166.930 C 200.937 169.531,200.226 171.686,200.226 171.721 C 200.226 171.755,201.423 171.783,202.886 171.783 L 205.546 171.783 207.288 166.503 C 209.421 160.036,209.485 158.891,207.798 157.336 C 206.518 156.156,202.357 156.659,200.600 158.206 C 200.212 158.548,200.154 158.530,199.715 157.926 C 198.630 156.436,195.859 156.197,193.454 157.384 M240.181 157.175 C 233.071 159.617,229.813 168.825,235.097 171.545 C 239.144 173.629,245.654 171.085,248.265 166.400 L 248.787 165.463 246.162 165.463 C 243.547 165.463,243.535 165.465,242.990 166.113 C 242.042 167.240,240.159 167.819,238.949 167.354 C 237.409 166.763,237.960 163.610,239.856 162.163 C 241.487 160.920,244.244 161.316,244.244 162.793 C 244.244 163.168,244.477 163.205,246.830 163.205 L 249.415 163.205 249.570 162.383 C 250.383 158.049,245.507 155.345,240.181 157.175 M275.601 156.973 C 271.144 158.255,267.584 162.327,267.320 166.447 C 266.701 176.097,282.858 173.014,284.664 163.137 C 285.529 158.403,281.102 155.391,275.601 156.973 M293.660 156.973 C 289.203 158.255,285.643 162.327,285.379 166.447 C 284.759 176.097,300.917 173.014,302.722 163.137 C 303.588 158.403,299.161 155.391,293.660 156.973 M168.769 164.278 C 167.443 168.220,166.360 171.524,166.362 171.621 C 166.364 171.718,167.551 171.769,168.999 171.734 L 171.633 171.670 174.060 164.391 L 176.488 157.111 173.834 157.111 L 171.180 157.111 168.769 164.278 M278.706 161.981 C 280.395 163.670,277.780 167.493,274.944 167.483 C 272.675 167.476,272.092 165.716,273.579 163.370 C 274.792 161.458,277.460 160.735,278.706 161.981 M296.765 161.981 C 298.453 163.670,295.839 167.493,293.002 167.483 C 290.734 167.476,290.151 165.716,291.638 163.370 C 292.850 161.458,295.519 160.735,296.765 161.981 " stroke="none" fill="#f2902e" fill-rule="evenodd"></path><path id="path3" d="M73.081 81.095 C 72.988 83.036,73.035 83.781,73.280 84.255 C 73.684 85.037,73.875 85.063,73.583 84.296 C 73.454 83.955,73.424 82.657,73.511 81.136 C 73.607 79.451,73.579 78.555,73.430 78.555 C 73.297 78.555,73.151 79.614,73.081 81.095 M48.663 82.280 C 48.961 82.972,48.756 89.339,48.404 90.338 C 47.991 91.510,48.226 91.424,48.744 90.214 C 49.393 88.701,49.505 82.807,48.896 82.232 C 48.484 81.843,48.476 81.845,48.663 82.280 M84.086 84.081 C 82.976 84.373,82.988 84.376,84.876 84.232 C 87.094 84.063,89.381 84.072,92.099 84.259 C 93.976 84.389,93.986 84.387,92.551 84.171 C 90.079 83.800,85.345 83.750,84.086 84.081 M97.004 84.813 C 97.405 84.863,98.116 84.864,98.584 84.815 C 99.052 84.766,98.725 84.725,97.856 84.724 C 96.986 84.723,96.603 84.763,97.004 84.813 M95.260 101.946 C 95.260 102.247,95.199 102.262,94.920 102.030 C 94.732 101.875,95.055 102.564,95.637 103.560 C 96.334 104.756,96.799 105.332,97.003 105.254 C 97.260 105.155,97.258 105.076,96.989 104.769 C 96.812 104.567,96.457 103.995,96.199 103.499 C 95.942 103.002,95.725 102.748,95.718 102.935 C 95.706 103.236,95.680 103.236,95.485 102.935 C 95.208 102.506,95.197 102.192,95.464 102.357 C 95.577 102.427,95.616 102.280,95.551 102.032 C 95.408 101.487,95.260 101.443,95.260 101.946 M70.877 106.716 L 68.059 109.594 70.937 106.775 C 73.610 104.158,73.917 103.837,73.755 103.837 C 73.722 103.837,72.427 105.133,70.877 106.716 M97.288 106.433 C 97.586 106.930,97.937 107.539,98.068 107.787 C 98.200 108.035,98.536 108.525,98.815 108.877 C 99.524 109.769,99.481 110.514,98.702 110.799 C 98.311 110.941,98.227 111.032,98.476 111.043 C 98.694 111.053,99.086 110.846,99.349 110.583 C 99.817 110.115,100.211 110.272,100.222 110.929 C 100.224 111.043,100.286 111.076,100.361 111.001 C 100.435 110.927,100.131 110.225,99.687 109.440 C 99.242 108.655,98.877 108.147,98.875 108.309 C 98.873 108.472,98.770 108.542,98.646 108.465 C 98.308 108.256,98.363 107.615,98.702 107.813 C 98.859 107.905,98.830 107.786,98.636 107.544 C 98.444 107.306,98.148 106.831,97.977 106.490 C 97.806 106.149,97.617 105.920,97.556 105.980 C 97.495 106.041,97.288 105.965,97.096 105.811 C 96.891 105.647,96.971 105.905,97.288 106.433 M69.603 110.666 C 69.801 110.794,69.801 110.876,69.603 111.005 C 69.459 111.098,71.830 111.143,74.871 111.106 C 78.857 111.057,80.489 111.112,80.719 111.303 C 80.929 111.477,81.038 111.485,81.038 111.328 C 81.038 111.196,81.419 111.054,81.885 111.012 C 83.376 110.879,78.615 110.603,73.892 110.549 C 71.389 110.520,69.459 110.573,69.603 110.666 M100.681 111.746 C 101.087 112.504,102.032 113.845,102.032 113.663 C 102.032 113.570,101.710 112.998,101.316 112.390 C 100.591 111.271,100.232 110.907,100.681 111.746 M79.399 114.796 C 79.065 115.349,78.839 115.801,78.897 115.801 C 79.050 115.801,80.182 113.967,80.087 113.872 C 80.043 113.828,79.733 114.243,79.399 114.796 M102.589 115.011 C 102.936 115.632,103.325 116.242,103.453 116.366 C 103.581 116.490,103.402 116.084,103.055 115.463 C 102.707 114.842,102.318 114.233,102.190 114.108 C 102.062 113.984,102.241 114.391,102.589 115.011 M115.125 117.042 C 114.834 117.352,114.544 117.554,114.482 117.492 C 114.419 117.429,113.999 117.963,113.549 118.677 C 112.440 120.439,112.287 120.757,112.868 120.090 C 113.220 119.687,113.323 119.642,113.229 119.933 C 113.152 120.171,113.190 120.282,113.321 120.202 C 113.444 120.126,113.544 119.973,113.544 119.863 C 113.544 119.612,114.815 117.669,115.426 116.986 C 116.047 116.292,115.784 116.341,115.125 117.042 M103.612 116.757 C 103.612 116.955,105.010 119.187,105.134 119.187 C 105.249 119.187,104.106 117.155,103.807 116.828 C 103.700 116.710,103.612 116.678,103.612 116.757 M77.665 117.749 C 77.400 118.199,77.219 118.604,77.264 118.649 C 77.309 118.694,77.574 118.326,77.852 117.830 C 78.485 116.706,78.323 116.635,77.665 117.749 M63.209 118.725 C 62.900 118.963,62.697 119.201,62.757 119.255 C 62.818 119.310,63.119 119.114,63.426 118.819 C 64.098 118.177,63.985 118.129,63.209 118.725 M118.875 119.963 C 119.006 120.305,119.639 120.636,119.639 120.363 C 119.639 120.273,119.439 120.074,119.196 119.922 C 118.830 119.694,118.774 119.701,118.875 119.963 M75.982 120.790 C 75.718 121.319,75.708 121.428,75.941 121.234 C 76.219 121.004,76.590 120.090,76.406 120.090 C 76.365 120.090,76.174 120.405,75.982 120.790 M112.524 121.226 C 112.330 121.603,112.080 121.855,111.970 121.787 C 111.860 121.719,111.696 121.782,111.606 121.927 C 111.504 122.092,111.541 122.131,111.703 122.031 C 112.027 121.830,112.035 122.019,111.727 122.595 C 111.596 122.838,111.400 122.982,111.291 122.915 C 111.182 122.847,111.019 122.911,110.929 123.056 C 110.819 123.233,110.864 123.259,111.064 123.136 C 111.288 122.997,111.324 123.060,111.209 123.383 C 111.083 123.737,111.126 123.724,111.453 123.307 C 111.983 122.632,113.151 120.542,112.999 120.542 C 112.932 120.542,112.719 120.850,112.524 121.226 M106.894 122.460 C 107.233 123.081,107.608 123.691,107.730 123.815 C 108.070 124.163,107.082 122.294,106.656 121.783 C 106.449 121.535,106.556 121.840,106.894 122.460 M75.227 121.953 C 74.908 122.356,74.458 123.251,74.575 123.251 C 74.629 123.251,74.883 122.895,75.139 122.460 C 75.605 121.671,75.648 121.420,75.227 121.953 M110.059 124.643 C 109.576 125.460,108.768 125.495,108.352 124.718 C 108.186 124.408,108.009 124.196,107.958 124.247 C 107.700 124.505,108.683 125.508,109.192 125.508 C 109.631 125.508,109.724 125.595,109.615 125.903 C 109.453 126.360,110.146 125.519,110.689 124.601 C 110.969 124.126,110.980 124.003,110.739 124.003 C 110.573 124.003,110.267 124.291,110.059 124.643 M71.567 128.236 C 71.179 128.868,70.984 129.308,71.135 129.215 C 71.326 129.097,71.363 129.164,71.257 129.440 C 71.174 129.656,71.105 129.902,71.103 129.985 C 71.101 130.068,71.020 130.010,70.922 129.857 C 70.804 129.672,70.506 129.995,70.029 130.826 C 69.635 131.512,69.411 132.012,69.532 131.937 C 69.874 131.726,69.791 132.146,69.395 132.632 C 69.090 133.006,69.056 133.012,69.162 132.675 C 69.333 132.131,69.144 132.179,68.834 132.759 C 68.632 133.136,68.638 133.200,68.865 133.060 C 69.070 132.933,69.109 132.994,69.000 133.277 C 68.917 133.494,68.847 133.739,68.845 133.822 C 68.843 133.905,68.765 133.853,68.672 133.705 C 68.558 133.527,68.368 133.671,68.101 134.137 C 67.843 134.585,67.812 134.742,68.013 134.575 C 68.185 134.432,68.381 134.371,68.449 134.438 C 68.577 134.567,70.118 131.937,70.243 131.375 C 70.283 131.196,70.450 130.905,70.614 130.730 C 71.136 130.170,71.623 129.335,71.499 129.212 C 71.433 129.146,71.616 128.836,71.906 128.524 C 72.807 127.551,73.324 127.848,74.602 130.075 C 75.225 131.160,75.802 132.048,75.886 132.050 C 76.056 132.055,74.155 128.777,73.630 128.160 C 73.445 127.943,73.044 127.765,72.740 127.765 C 72.341 127.765,72.223 127.671,72.316 127.427 C 72.567 126.775,72.267 127.098,71.567 128.236 M107.946 128.837 C 107.466 129.521,106.626 131.121,106.865 130.898 C 107.082 130.695,108.560 128.217,108.464 128.217 C 108.419 128.217,108.186 128.496,107.946 128.837 M106.095 132.054 C 105.841 132.551,105.685 132.957,105.747 132.957 C 105.809 132.957,106.067 132.551,106.321 132.054 C 106.574 131.558,106.730 131.151,106.668 131.151 C 106.606 131.151,106.348 131.558,106.095 132.054 M76.075 132.345 C 76.070 132.647,77.000 134.362,77.109 134.253 C 77.165 134.197,76.956 133.704,76.645 133.159 C 76.333 132.613,76.076 132.247,76.075 132.345 M119.143 133.916 C 118.946 134.072,118.660 134.605,118.506 135.102 C 118.352 135.598,118.112 136.157,117.973 136.343 C 117.759 136.629,117.776 136.638,118.079 136.402 C 118.276 136.249,118.559 135.715,118.708 135.217 C 118.864 134.698,119.120 134.312,119.309 134.312 C 119.491 134.312,119.639 134.159,119.639 133.973 C 119.639 133.562,119.597 133.557,119.143 133.916 M62.761 134.029 C 62.765 134.122,63.044 134.394,63.382 134.632 L 63.995 135.065 63.448 134.463 C 62.873 133.829,62.749 133.751,62.761 134.029 M103.912 135.835 C 102.899 137.435,102.028 139.081,102.275 138.928 C 102.395 138.854,102.799 138.217,103.173 137.512 C 103.548 136.807,104.063 135.900,104.318 135.497 C 104.573 135.093,104.739 134.763,104.686 134.763 C 104.634 134.763,104.285 135.245,103.912 135.835 M67.266 135.445 C 67.132 135.696,67.083 136.000,67.159 136.122 C 67.234 136.244,67.207 136.343,67.099 136.343 C 66.991 136.343,66.660 136.673,66.365 137.077 C 66.070 137.480,65.990 137.679,66.188 137.519 C 66.410 137.339,66.578 137.315,66.626 137.456 C 66.669 137.582,66.943 137.269,67.235 136.761 C 67.526 136.253,67.653 135.906,67.517 135.991 C 67.206 136.183,67.201 135.989,67.502 135.425 C 67.631 135.185,67.685 134.989,67.623 134.989 C 67.561 134.989,67.400 135.194,67.266 135.445 M79.120 137.923 C 79.312 138.296,79.521 138.600,79.583 138.600 C 79.645 138.600,79.538 138.296,79.345 137.923 C 79.153 137.551,78.944 137.246,78.882 137.246 C 78.820 137.246,78.927 137.551,79.120 137.923 M101.180 140.490 C 100.903 140.894,100.677 141.447,100.677 141.718 L 100.677 142.212 91.882 142.212 C 82.371 142.212,82.231 142.231,82.701 143.457 C 82.766 143.625,82.740 143.795,82.643 143.834 C 82.546 143.873,82.806 144.464,83.219 145.147 C 83.633 145.830,83.971 146.255,83.972 146.093 C 83.972 145.930,84.083 145.865,84.218 145.949 C 84.353 146.032,84.200 145.708,83.879 145.228 C 82.007 142.435,81.630 142.561,92.067 142.492 L 100.903 142.433 100.903 141.789 C 100.903 141.434,101.118 140.871,101.380 140.538 C 101.643 140.204,101.818 139.892,101.770 139.844 C 101.722 139.796,101.457 140.087,101.180 140.490 M80.805 140.842 C 81.054 141.331,81.355 141.790,81.474 141.864 C 81.593 141.937,81.433 141.538,81.119 140.976 C 80.418 139.722,80.182 139.621,80.805 140.842 M107.111 142.215 C 104.379 142.288,102.094 142.389,102.032 142.440 C 101.970 142.491,104.052 142.604,106.659 142.691 C 109.266 142.777,111.857 142.893,112.415 142.948 C 112.974 143.004,113.050 143.007,112.585 142.956 C 111.669 142.856,111.507 142.595,112.133 142.230 C 112.350 142.104,112.427 142.019,112.302 142.041 C 112.178 142.064,109.842 142.142,107.111 142.215 M81.732 142.325 C 81.732 142.449,81.877 142.805,82.054 143.115 C 82.232 143.426,82.377 143.578,82.377 143.454 C 82.377 143.330,82.232 142.974,82.054 142.664 C 81.877 142.353,81.732 142.201,81.732 142.325 M113.796 143.439 C 113.782 143.679,113.544 144.137,113.268 144.455 L 112.767 145.034 113.403 144.442 C 113.810 144.064,114.000 143.697,113.931 143.426 C 113.827 143.022,113.821 143.022,113.796 143.439 M84.430 146.458 C 84.427 146.621,84.333 146.697,84.220 146.627 C 83.991 146.486,85.244 148.911,85.672 149.436 C 85.824 149.622,86.250 150.356,86.620 151.068 C 86.990 151.779,87.359 152.295,87.441 152.213 C 87.523 152.131,87.915 152.362,88.312 152.725 L 89.035 153.386 88.254 152.464 C 87.824 151.956,87.389 151.585,87.287 151.640 C 87.186 151.694,87.135 151.597,87.175 151.424 C 87.241 151.134,86.765 150.192,85.088 147.291 C 84.729 146.670,84.433 146.295,84.430 146.458 M85.740 148.988 C 85.690 149.138,85.518 148.970,85.359 148.615 C 85.088 148.010,85.094 147.992,85.450 148.341 C 85.660 148.546,85.790 148.837,85.740 148.988 M86.734 155.305 C 86.889 155.553,87.097 155.756,87.195 155.756 C 87.294 155.756,87.266 155.553,87.133 155.305 C 87.000 155.056,86.793 154.853,86.672 154.853 C 86.550 154.853,86.578 155.055,86.734 155.305 M94.357 155.305 C 94.224 155.553,94.169 155.756,94.236 155.756 C 94.302 155.756,94.560 155.553,94.808 155.305 C 95.150 154.963,95.179 154.853,94.929 154.853 C 94.747 154.853,94.490 155.056,94.357 155.305 " stroke="none" fill="#91ac96" fill-rule="evenodd"></path><path id="path4" d="M72.912 79.537 C 72.912 80.077,72.848 81.275,72.770 82.199 C 72.635 83.798,72.657 83.912,73.230 84.547 L 73.832 85.214 73.392 84.454 C 73.002 83.779,72.966 83.402,73.078 81.124 C 73.148 79.711,73.139 78.555,73.058 78.555 C 72.978 78.555,72.912 78.997,72.912 79.537 M49.063 82.449 C 49.407 83.003,49.260 89.049,48.881 89.955 C 48.732 90.310,48.752 90.351,48.975 90.146 C 49.570 89.596,49.929 82.751,49.391 82.212 C 48.937 81.759,48.728 81.910,49.063 82.449 M85.009 84.213 C 83.903 84.327,82.938 84.481,82.865 84.556 C 82.791 84.630,83.696 84.606,84.876 84.501 C 87.278 84.289,88.745 84.282,91.874 84.471 C 93.546 84.573,93.695 84.561,92.551 84.420 C 89.809 84.082,87.026 84.005,85.009 84.213 M343.785 92.269 L 342.551 93.567 343.849 92.333 C 345.055 91.187,345.250 90.971,345.083 90.971 C 345.047 90.971,344.463 91.555,343.785 92.269 M340.964 95.316 L 339.616 96.727 341.027 95.380 C 341.803 94.638,342.438 94.004,342.438 93.969 C 342.438 93.802,342.215 94.005,340.964 95.316 M338.141 98.363 L 336.907 99.661 338.205 98.428 C 339.411 97.281,339.607 97.065,339.439 97.065 C 339.404 97.065,338.820 97.650,338.141 98.363 M181.941 99.549 L 175.734 99.672 181.872 99.723 C 185.776 99.756,188.060 99.692,188.149 99.549 C 188.226 99.424,188.257 99.346,188.219 99.374 C 188.180 99.402,185.356 99.480,181.941 99.549 M335.432 101.298 L 334.199 102.596 335.497 101.362 C 336.702 100.216,336.898 100.000,336.730 100.000 C 336.695 100.000,336.111 100.584,335.432 101.298 M94.384 101.469 C 94.833 101.965,95.313 102.573,95.449 102.822 C 95.656 103.198,95.698 103.210,95.704 102.891 C 95.708 102.681,95.609 102.447,95.485 102.370 C 95.361 102.293,95.248 101.957,95.233 101.623 C 95.215 101.202,95.174 101.143,95.100 101.433 C 95.002 101.810,94.924 101.789,94.279 101.209 C 93.659 100.651,93.673 100.685,94.384 101.469 M332.611 104.345 L 331.264 105.756 332.675 104.409 C 333.451 103.668,334.086 103.033,334.086 102.998 C 334.086 102.831,333.863 103.035,332.611 104.345 M96.840 105.390 C 96.840 105.499,96.992 105.715,97.178 105.869 C 97.546 106.174,97.592 106.101,97.380 105.549 C 97.235 105.171,96.840 105.055,96.840 105.390 M329.903 107.280 L 328.555 108.691 329.966 107.343 C 330.742 106.602,331.377 105.967,331.377 105.933 C 331.377 105.766,331.154 105.969,329.903 107.280 M98.420 107.973 C 98.420 108.151,98.564 108.417,98.741 108.563 C 99.004 108.782,99.040 108.746,98.939 108.362 C 98.792 107.797,98.420 107.519,98.420 107.973 M327.416 109.989 L 326.524 110.948 327.483 110.056 C 328.011 109.565,328.442 109.133,328.442 109.096 C 328.442 108.926,328.246 109.097,327.416 109.989 M99.432 110.519 C 99.230 110.839,98.333 110.876,91.466 110.847 C 81.631 110.806,81.038 110.863,81.038 111.853 C 81.038 112.256,80.890 112.709,80.709 112.860 C 80.527 113.010,80.311 113.353,80.227 113.621 C 80.144 113.889,79.749 114.616,79.350 115.237 C 78.701 116.245,77.538 118.287,76.519 120.203 C 76.322 120.576,75.799 121.439,75.358 122.122 C 74.918 122.805,74.175 124.074,73.708 124.944 C 73.240 125.813,72.718 126.724,72.546 126.969 C 72.109 127.594,72.156 127.765,72.764 127.765 C 73.524 127.765,74.397 129.025,77.150 134.086 C 77.656 135.017,79.043 137.450,80.232 139.493 C 81.420 141.536,82.393 143.339,82.393 143.500 C 82.393 143.661,82.491 143.792,82.611 143.792 C 82.732 143.792,82.775 143.648,82.707 143.471 C 82.230 142.229,82.354 142.212,91.882 142.212 L 100.677 142.212 100.677 141.678 C 100.677 141.385,100.864 140.902,101.093 140.606 C 101.321 140.310,101.895 139.357,102.368 138.488 C 102.841 137.619,103.543 136.399,103.928 135.777 C 105.063 133.941,105.121 133.841,106.343 131.603 C 106.987 130.423,107.712 129.175,107.954 128.829 C 108.412 128.176,109.707 125.819,109.707 125.640 C 109.707 125.584,109.441 125.506,109.116 125.466 C 108.510 125.393,108.039 124.708,106.310 121.385 C 105.938 120.669,105.286 119.540,104.861 118.876 C 104.436 118.211,103.809 117.172,103.467 116.565 C 103.126 115.959,102.464 114.802,101.997 113.995 C 101.530 113.188,100.869 111.995,100.527 111.343 C 99.847 110.046,99.767 109.986,99.432 110.519 M171.028 113.262 C 170.970 113.355,172.564 113.405,174.570 113.373 C 181.385 113.264,182.068 113.186,176.593 113.139 C 173.590 113.113,171.085 113.169,171.028 113.262 M47.657 113.488 C 47.722 113.901,47.608 114.085,47.445 113.829 C 47.338 113.660,47.259 113.861,47.245 114.337 C 47.233 114.770,47.315 115.124,47.426 115.124 C 47.538 115.124,47.630 115.238,47.630 115.378 C 47.630 115.564,47.548 115.563,47.321 115.375 C 46.901 115.026,46.566 115.457,46.466 116.476 C 46.399 117.157,46.457 117.268,46.890 117.292 C 47.166 117.307,47.342 117.239,47.282 117.140 C 47.221 117.042,47.389 116.808,47.655 116.622 C 48.002 116.378,48.109 116.120,48.030 115.711 C 47.970 115.397,48.023 115.106,48.146 115.065 C 48.287 115.018,48.265 114.790,48.087 114.458 C 47.832 113.981,47.845 113.943,48.212 114.084 C 48.600 114.233,48.600 114.218,48.203 113.779 C 47.760 113.290,47.613 113.212,47.657 113.488 M114.625 116.817 C 114.449 117.681,114.503 117.721,115.031 117.118 C 115.269 116.848,115.343 116.696,115.198 116.781 C 115.044 116.871,114.897 116.769,114.848 116.538 C 114.792 116.275,114.716 116.370,114.625 116.817 M200.178 119.355 C 200.959 119.399,202.178 119.399,202.887 119.354 C 203.596 119.309,202.957 119.273,201.467 119.274 C 199.977 119.274,199.397 119.311,200.178 119.355 M193.510 119.581 C 194.472 119.623,196.047 119.623,197.009 119.581 C 197.971 119.539,197.184 119.504,195.260 119.504 C 193.335 119.504,192.548 119.539,193.510 119.581 M111.855 121.787 C 111.149 122.985,110.617 124.011,110.672 124.066 C 110.727 124.121,111.354 123.190,112.066 121.998 C 112.777 120.806,113.309 119.780,113.248 119.719 C 113.187 119.658,112.560 120.589,111.855 121.787 M317.043 124.153 L 312.077 124.280 316.973 124.329 C 320.049 124.361,321.921 124.295,322.009 124.153 C 322.086 124.029,322.117 123.950,322.079 123.978 C 322.040 124.005,319.774 124.084,317.043 124.153 M188.491 124.488 C 188.264 124.762,187.285 124.834,183.102 124.887 L 177.991 124.952 183.091 125.004 C 187.941 125.054,188.212 125.034,188.600 124.605 C 188.825 124.357,188.955 124.153,188.889 124.153 C 188.823 124.153,188.644 124.304,188.491 124.488 M240.056 124.368 C 239.938 124.486,239.131 124.618,238.262 124.662 L 236.682 124.742 238.291 124.786 C 239.487 124.819,239.972 124.744,240.181 124.492 C 240.490 124.120,240.397 124.027,240.056 124.368 M253.769 124.548 C 255.096 124.587,257.331 124.588,258.735 124.548 C 260.138 124.508,259.052 124.476,256.321 124.475 C 253.589 124.475,252.441 124.508,253.769 124.548 M267.764 124.548 C 269.092 124.587,271.327 124.588,272.730 124.548 C 274.134 124.508,273.047 124.476,270.316 124.475 C 267.585 124.475,266.436 124.508,267.764 124.548 M287.061 124.548 C 290.063 124.584,295.041 124.584,298.122 124.548 C 301.203 124.513,298.747 124.484,292.664 124.484 C 286.580 124.484,284.059 124.513,287.061 124.548 M218.103 124.773 C 219.430 124.813,221.665 124.813,223.069 124.774 C 224.472 124.734,223.386 124.701,220.655 124.701 C 217.923 124.701,216.775 124.733,218.103 124.773 M161.964 125.056 L 156.998 125.183 161.894 125.232 C 164.970 125.264,166.842 125.198,166.930 125.056 C 167.007 124.932,167.038 124.853,167.000 124.880 C 166.961 124.908,164.695 124.987,161.964 125.056 M206.503 124.999 C 208.031 125.039,210.469 125.038,211.920 124.999 C 213.372 124.960,212.122 124.928,209.142 124.928 C 206.163 124.928,204.975 124.960,206.503 124.999 M274.097 126.411 C 273.974 126.721,273.637 127.712,273.348 128.612 L 272.823 130.248 270.159 130.248 C 268.480 130.248,267.494 130.334,267.494 130.481 C 267.494 130.632,268.471 130.691,270.260 130.650 L 273.025 130.587 273.763 128.456 C 274.414 126.578,274.682 124.932,274.097 126.411 M218.968 126.862 C 218.951 126.924,217.445 131.394,215.620 136.795 L 212.302 146.614 210.345 146.679 C 208.568 146.738,208.375 146.703,208.247 146.301 C 208.111 145.872,208.066 145.877,206.819 146.462 C 204.902 147.360,201.504 147.353,199.963 146.447 C 198.453 145.559,197.897 144.534,197.726 142.328 L 197.587 140.519 197.557 142.212 C 197.469 147.159,201.987 149.118,207.731 146.624 C 208.017 146.500,208.126 146.556,208.126 146.824 C 208.126 147.147,208.408 147.186,210.297 147.130 L 212.469 147.065 215.832 137.144 C 217.681 131.687,219.150 127.116,219.096 126.986 C 219.042 126.856,218.984 126.800,218.968 126.862 M119.639 130.813 C 119.639 133.687,119.582 134.312,119.318 134.312 C 119.141 134.312,118.874 134.692,118.725 135.158 C 118.575 135.624,118.291 136.208,118.093 136.456 C 117.873 136.731,117.858 136.797,118.053 136.625 C 118.247 136.455,119.022 136.343,120.004 136.343 C 122.161 136.343,122.390 136.247,122.079 135.477 C 121.823 134.846,121.374 132.701,120.989 130.276 C 120.752 128.776,120.184 127.314,119.839 127.314 C 119.729 127.314,119.639 128.888,119.639 130.813 M261.954 129.613 C 261.613 130.645,261.282 131.642,261.220 131.828 C 261.144 132.057,261.183 132.093,261.338 131.941 C 261.633 131.653,262.838 128.000,262.688 127.849 C 262.626 127.787,262.295 128.581,261.954 129.613 M71.112 129.225 C 70.961 129.407,70.877 129.672,70.924 129.815 C 70.971 129.957,71.131 129.808,71.279 129.484 C 71.580 128.823,71.522 128.732,71.112 129.225 M329.386 130.361 C 329.286 132.883,326.521 136.118,323.648 137.076 C 323.523 137.118,323.691 137.684,324.021 138.336 C 324.506 139.293,325.056 139.719,325.056 139.138 C 325.056 139.076,324.972 139.078,324.868 139.142 C 324.717 139.235,323.928 137.936,323.928 137.594 C 323.928 137.545,324.470 137.195,325.132 136.816 C 328.157 135.085,329.661 132.938,329.513 130.560 L 329.431 129.233 329.386 130.361 M169.889 130.813 C 170.075 131.643,170.204 131.823,170.200 131.245 C 170.198 131.007,170.093 130.660,169.967 130.474 C 169.800 130.227,169.779 130.318,169.889 130.813 M322.591 131.284 C 322.008 131.775,321.900 132.020,321.922 132.808 C 321.937 133.324,321.991 133.544,322.044 133.296 C 322.097 133.047,322.188 132.618,322.247 132.340 C 322.461 131.336,324.217 130.899,324.453 131.791 C 324.511 132.009,324.564 131.916,324.579 131.570 C 324.624 130.550,323.632 130.408,322.591 131.284 M69.177 132.522 C 68.858 133.028,68.628 133.535,68.666 133.650 C 68.705 133.765,69.021 133.351,69.370 132.731 C 70.131 131.376,69.994 131.228,69.177 132.522 M170.013 133.293 C 169.121 138.102,165.274 141.287,160.065 141.528 L 157.489 141.648 156.964 143.228 C 156.675 144.097,156.276 145.240,156.078 145.767 L 155.719 146.727 153.048 146.727 C 151.122 146.727,150.344 146.648,150.262 146.445 C 150.200 146.290,150.140 146.391,150.131 146.670 C 150.113 147.172,150.150 147.178,153.032 147.178 L 155.951 147.178 156.798 144.605 L 157.645 142.032 160.256 141.950 C 165.860 141.774,171.256 136.523,170.381 132.097 C 170.340 131.887,170.174 132.426,170.013 133.293 M171.719 133.231 C 171.513 133.874,171.383 134.437,171.428 134.483 C 171.474 134.529,171.685 134.045,171.896 133.409 C 172.108 132.772,172.238 132.208,172.187 132.157 C 172.135 132.105,171.924 132.588,171.719 133.231 M182.107 132.208 C 182.049 132.310,181.679 133.373,181.284 134.570 L 180.565 136.748 178.773 136.829 C 176.148 136.948,175.915 137.233,174.144 142.484 L 172.751 146.614 170.097 146.678 L 167.442 146.742 167.588 146.113 C 167.696 145.649,167.674 145.573,167.505 145.824 C 166.717 146.988,167.078 147.178,170.066 147.178 L 172.863 147.178 174.234 143.118 C 176.120 137.536,176.371 137.246,179.303 137.246 L 180.743 137.246 181.596 134.753 C 182.303 132.688,182.558 131.418,182.107 132.208 M223.955 136.092 C 223.177 138.355,222.490 140.582,222.428 141.040 C 222.366 141.498,223.033 139.740,223.910 137.133 C 224.787 134.526,225.474 132.299,225.437 132.185 C 225.400 132.071,224.733 133.829,223.955 136.092 M264.122 134.081 L 263.394 136.117 261.625 136.117 L 259.857 136.117 259.048 138.544 C 258.195 141.103,258.100 141.648,258.462 141.872 C 258.591 141.952,258.628 141.859,258.548 141.652 C 258.473 141.455,258.790 140.231,259.253 138.931 L 260.094 136.569 261.857 136.569 L 263.620 136.569 264.339 134.410 C 265.258 131.651,265.085 131.389,264.122 134.081 M266.301 133.231 C 266.096 133.874,265.965 134.437,266.011 134.483 C 266.056 134.529,266.267 134.045,266.479 133.409 C 266.690 132.772,266.821 132.208,266.769 132.157 C 266.717 132.105,266.507 132.588,266.301 133.231 M272.126 132.304 C 272.061 132.477,270.958 135.767,269.676 139.616 L 267.344 146.614 264.684 146.678 L 262.024 146.742 262.170 146.113 C 262.278 145.649,262.257 145.573,262.087 145.824 C 261.300 146.987,261.661 147.178,264.643 147.178 L 267.435 147.178 269.977 139.721 C 271.375 135.619,272.457 132.201,272.382 132.126 C 272.307 132.051,272.192 132.131,272.126 132.304 M292.486 133.231 C 292.281 133.874,292.150 134.437,292.196 134.483 C 292.242 134.529,292.452 134.045,292.664 133.409 C 292.875 132.772,293.006 132.208,292.954 132.157 C 292.902 132.105,292.692 132.588,292.486 133.231 M176.072 132.844 C 176.072 133.155,176.160 133.409,176.267 133.409 C 176.374 133.409,176.413 133.155,176.353 132.844 C 176.294 132.534,176.206 132.280,176.159 132.280 C 176.111 132.280,176.072 132.534,176.072 132.844 M233.097 136.853 C 230.475 144.569,228.152 146.908,222.881 147.139 C 219.087 147.306,217.469 146.300,216.771 143.341 L 216.478 142.099 216.599 143.454 C 217.144 149.544,227.815 148.961,231.248 142.653 C 231.922 141.415,235.053 132.278,234.803 132.282 C 234.719 132.283,233.951 134.340,233.097 136.853 M159.918 134.368 C 159.579 135.392,159.255 136.357,159.198 136.512 C 159.141 136.668,159.185 136.795,159.297 136.795 C 159.409 136.795,159.782 135.931,160.125 134.876 L 160.750 132.957 162.072 132.957 C 163.251 132.957,163.443 133.024,163.857 133.578 C 164.408 134.317,164.526 133.783,163.983 133.007 C 163.678 132.572,163.427 132.506,162.082 132.506 L 160.534 132.506 159.918 134.368 M316.978 133.634 C 316.970 134.193,317.107 135.056,317.280 135.553 L 317.595 136.456 317.452 135.553 C 317.373 135.056,317.237 134.193,317.149 133.634 L 316.990 132.619 316.978 133.634 M200.665 134.932 L 199.887 135.779 200.734 135.001 C 201.522 134.277,201.684 134.086,201.512 134.086 C 201.474 134.086,201.093 134.467,200.665 134.932 M306.310 135.553 C 306.221 136.704,305.737 138.436,304.530 141.930 L 302.872 146.727 300.195 146.727 C 298.560 146.727,297.517 146.815,297.517 146.953 C 297.517 147.091,298.603 147.178,300.324 147.178 L 303.131 147.178 304.849 141.983 C 306.369 137.388,306.560 136.626,306.501 135.381 L 306.433 133.973 306.310 135.553 M68.006 134.588 C 67.663 135.018,67.014 136.343,67.147 136.343 C 67.343 136.343,68.470 134.535,68.350 134.414 C 68.287 134.352,68.133 134.430,68.006 134.588 M153.413 136.709 C 152.967 138.042,152.640 139.171,152.687 139.218 C 152.734 139.266,153.138 138.213,153.584 136.880 C 154.031 135.547,154.358 134.418,154.311 134.371 C 154.263 134.324,153.860 135.376,153.413 136.709 M251.912 135.348 C 251.764 135.797,251.731 136.241,251.838 136.343 C 252.177 136.665,254.385 136.712,254.505 136.400 C 254.584 136.193,254.248 136.117,253.251 136.117 C 251.784 136.117,251.811 136.154,252.312 134.819 C 252.371 134.664,252.365 134.537,252.299 134.537 C 252.233 134.537,252.059 134.902,251.912 135.348 M251.047 136.456 C 250.952 138.185,251.014 138.149,248.168 138.149 C 245.830 138.149,245.598 138.112,245.598 137.737 C 245.598 136.259,242.841 135.863,241.211 137.107 C 240.275 137.820,239.595 139.030,239.414 140.304 L 239.287 141.196 239.614 140.211 C 240.697 136.952,245.372 135.278,245.372 138.149 C 245.372 138.576,245.523 138.600,248.184 138.600 L 250.995 138.600 251.137 137.846 C 251.215 137.431,251.235 136.796,251.181 136.435 L 251.083 135.779 251.047 136.456 M206.475 136.434 C 204.817 137.045,203.633 138.429,203.309 140.135 C 203.220 140.601,203.250 140.829,203.389 140.743 C 203.512 140.667,203.612 140.428,203.612 140.211 C 203.612 138.458,206.654 136.259,208.368 136.773 C 209.375 137.074,209.525 137.263,209.727 138.488 L 209.876 139.391 209.904 138.358 C 209.952 136.597,208.398 135.725,206.475 136.434 M297.846 136.538 C 296.792 137.180,296.439 137.892,294.928 142.419 L 293.528 146.614 290.869 146.678 L 288.209 146.742 288.355 146.113 C 288.463 145.649,288.442 145.573,288.272 145.824 C 287.484 146.988,287.845 147.178,290.839 147.178 L 293.642 147.178 294.934 143.284 C 295.644 141.143,296.410 139.022,296.635 138.572 C 297.863 136.125,300.804 135.730,300.344 138.073 C 300.242 138.593,300.259 138.629,300.432 138.262 C 301.275 136.478,299.684 135.417,297.846 136.538 M187.706 136.857 C 186.636 137.463,185.578 139.074,185.436 140.310 L 185.335 141.196 185.668 140.178 C 186.808 136.688,191.272 135.438,191.709 138.488 C 191.796 139.092,191.810 139.073,191.840 138.308 C 191.913 136.464,189.743 135.703,187.706 136.857 M197.341 137.810 C 195.758 147.361,180.649 151.200,179.897 142.243 L 179.752 140.519 179.718 142.050 C 179.535 150.265,192.646 149.361,196.739 140.876 C 197.272 139.772,197.868 137.057,197.693 136.531 C 197.641 136.377,197.483 136.952,197.341 137.810 M279.128 136.857 C 278.058 137.463,277.000 139.074,276.859 140.310 L 276.757 141.196 277.090 140.178 C 278.230 136.688,282.694 135.438,283.131 138.488 C 283.218 139.092,283.232 139.073,283.262 138.308 C 283.335 136.464,281.166 135.703,279.128 136.857 M288.763 137.810 C 287.180 147.361,272.072 151.200,271.319 142.243 L 271.174 140.519 271.140 142.050 C 270.957 150.265,284.068 149.361,288.161 140.876 C 288.694 139.772,289.290 137.057,289.115 136.531 C 289.063 136.377,288.905 136.952,288.763 137.810 M227.002 138.514 C 226.679 139.475,226.454 140.299,226.501 140.346 C 226.548 140.393,226.851 139.647,227.174 138.686 C 227.497 137.726,227.722 136.902,227.675 136.855 C 227.628 136.807,227.325 137.554,227.002 138.514 M217.518 138.756 C 217.194 139.727,216.938 140.622,216.947 140.746 C 216.956 140.869,217.260 140.115,217.622 139.069 C 217.984 138.022,218.241 137.127,218.193 137.079 C 218.145 137.031,217.841 137.786,217.518 138.756 M180.689 137.944 C 180.490 138.328,180.368 138.682,180.417 138.731 C 180.466 138.780,180.675 138.466,180.881 138.033 C 181.346 137.060,181.185 136.985,180.689 137.944 M198.522 137.944 C 198.323 138.328,198.201 138.682,198.250 138.731 C 198.299 138.780,198.508 138.466,198.714 138.033 C 199.179 137.060,199.018 136.985,198.522 137.944 M234.639 137.944 C 234.441 138.328,234.318 138.682,234.367 138.731 C 234.416 138.780,234.625 138.466,234.832 138.033 C 235.296 137.060,235.135 136.985,234.639 137.944 M272.111 137.944 C 271.912 138.328,271.790 138.682,271.839 138.731 C 271.888 138.780,272.097 138.466,272.304 138.033 C 272.768 137.060,272.607 136.985,272.111 137.944 M329.488 139.180 C 329.012 140.103,328.163 141.370,327.601 141.996 C 326.588 143.123,326.410 143.811,327.347 142.982 C 328.439 142.015,330.779 137.927,330.436 137.584 C 330.390 137.538,329.963 138.256,329.488 139.180 M298.899 142.240 C 298.390 143.759,298.013 145.041,298.060 145.088 C 298.107 145.135,298.561 143.930,299.070 142.411 C 299.578 140.891,299.955 139.609,299.908 139.562 C 299.861 139.515,299.407 140.720,298.899 142.240 M318.311 140.298 C 317.524 141.194,317.206 142.127,317.566 142.487 C 317.738 142.659,317.773 142.594,317.686 142.264 C 317.602 141.941,317.804 141.539,318.354 140.940 L 319.142 140.079 319.776 141.371 C 320.318 142.476,320.767 143.002,320.767 142.531 C 320.767 142.362,319.172 139.503,319.078 139.503 C 319.040 139.503,318.695 139.861,318.311 140.298 M233.666 142.050 C 233.502 150.016,247.246 149.165,250.182 141.027 C 250.447 140.293,250.004 140.629,249.466 141.570 C 245.380 148.723,234.526 149.227,233.866 142.294 L 233.697 140.519 233.666 142.050 M260.718 144.413 L 259.949 146.727 257.392 146.727 C 253.695 146.727,252.749 146.158,252.352 143.691 L 252.168 142.551 252.232 143.858 C 252.360 146.481,253.520 147.212,257.418 147.125 L 260.096 147.065 260.868 144.929 C 261.293 143.755,261.605 142.637,261.563 142.446 C 261.521 142.255,261.141 143.141,260.718 144.413 M312.222 143.590 C 312.144 147.220,316.366 148.799,321.323 146.992 C 322.494 146.566,322.693 146.546,322.858 146.840 C 323.112 147.293,328.668 147.347,328.669 146.896 C 328.669 146.682,328.016 146.631,325.970 146.684 C 323.526 146.747,323.246 146.713,323.005 146.327 C 322.747 145.914,322.697 145.918,321.358 146.460 C 316.860 148.281,312.751 146.981,312.409 143.627 L 312.254 142.099 312.222 143.590 M327.878 145.598 C 328.071 145.971,328.279 146.275,328.341 146.275 C 328.403 146.275,328.296 145.971,328.104 145.598 C 327.911 145.226,327.703 144.921,327.641 144.921 C 327.579 144.921,327.685 145.226,327.878 145.598 M110.715 147.009 L 109.368 148.420 110.779 147.073 C 112.089 145.821,112.293 145.598,112.126 145.598 C 112.091 145.598,111.456 146.233,110.715 147.009 M83.973 146.122 C 83.973 146.300,84.117 146.566,84.294 146.712 C 84.557 146.931,84.593 146.895,84.492 146.511 C 84.345 145.946,83.973 145.667,83.973 146.122 M85.359 148.615 C 85.518 148.970,85.690 149.138,85.740 148.988 C 85.790 148.837,85.660 148.546,85.450 148.341 C 85.094 147.992,85.088 148.010,85.359 148.615 M178.386 151.467 C 178.263 151.778,177.926 152.768,177.637 153.668 L 177.112 155.305 174.448 155.305 C 172.769 155.305,171.783 155.391,171.783 155.537 C 171.783 155.688,172.759 155.748,174.549 155.707 L 177.314 155.643 178.052 153.513 C 178.703 151.635,178.971 149.988,178.386 151.467 M183.267 161.856 L 179.970 171.670 177.318 171.734 L 174.665 171.798 174.811 171.170 C 174.919 170.705,174.898 170.630,174.728 170.880 C 173.939 172.046,174.299 172.235,177.314 172.235 C 178.866 172.235,180.135 172.201,180.135 172.160 C 180.135 172.119,181.612 167.731,183.417 162.410 C 185.222 157.089,186.668 152.580,186.631 152.389 C 186.595 152.198,185.081 156.458,183.267 161.856 M259.729 154.683 C 259.244 156.080,258.801 157.352,258.744 157.508 C 258.676 157.695,258.769 157.744,259.014 157.650 C 259.219 157.571,259.342 157.460,259.285 157.404 C 259.229 157.348,259.532 156.269,259.958 155.006 C 260.384 153.742,260.705 152.582,260.671 152.426 C 260.637 152.270,260.213 153.286,259.729 154.683 M310.581 161.856 L 307.284 171.670 304.631 171.734 L 301.979 171.798 302.125 171.170 C 302.233 170.705,302.211 170.630,302.042 170.880 C 301.253 172.046,301.613 172.235,304.628 172.235 C 306.179 172.235,307.449 172.201,307.449 172.160 C 307.449 172.119,308.926 167.731,310.731 162.410 C 312.535 157.089,313.982 152.580,313.945 152.389 C 313.908 152.198,312.395 156.458,310.581 161.856 M169.763 155.305 L 168.984 157.562 165.576 157.562 L 162.169 157.562 161.692 159.029 C 161.429 159.836,161.289 160.497,161.379 160.497 C 161.469 160.497,161.719 159.938,161.934 159.255 L 162.326 158.014 165.765 158.014 L 169.204 158.014 169.946 155.750 C 170.354 154.505,170.655 153.388,170.615 153.267 C 170.575 153.146,170.191 154.063,169.763 155.305 M232.335 153.901 C 233.047 154.773,233.293 155.853,233.100 157.259 C 232.900 158.719,232.960 158.691,230.009 158.691 L 227.314 158.691 227.314 158.021 C 227.314 156.869,225.987 156.525,224.661 157.334 C 223.928 157.781,223.646 158.716,224.151 159.028 C 224.280 159.108,224.316 159.014,224.236 158.807 C 224.054 158.330,224.721 157.622,225.518 157.447 C 226.444 157.244,227.088 157.664,227.088 158.473 L 227.088 159.142 230.012 159.142 L 232.936 159.142 233.171 158.296 C 233.694 156.411,233.327 154.516,232.263 153.612 C 231.794 153.214,231.803 153.248,232.335 153.901 M179.486 156.687 C 178.977 158.206,178.600 159.488,178.647 159.535 C 178.694 159.582,179.148 158.377,179.657 156.858 C 180.165 155.338,180.542 154.056,180.495 154.009 C 180.448 153.962,179.994 155.167,179.486 156.687 M253.526 156.687 C 253.018 158.206,252.641 159.488,252.688 159.535 C 252.735 159.582,253.189 158.377,253.697 156.858 C 254.206 155.338,254.583 154.056,254.536 154.009 C 254.489 153.962,254.035 155.167,253.526 156.687 M306.799 156.687 C 306.291 158.206,305.914 159.488,305.961 159.535 C 306.008 159.582,306.462 158.377,306.970 156.858 C 307.479 155.338,307.856 154.056,307.809 154.009 C 307.762 153.962,307.308 155.167,306.799 156.687 M220.078 155.023 L 219.300 155.869 220.147 155.091 C 220.612 154.663,220.993 154.282,220.993 154.245 C 220.993 154.072,220.802 154.235,220.078 155.023 M170.590 158.288 C 170.385 158.930,170.254 159.494,170.300 159.540 C 170.345 159.585,170.556 159.102,170.767 158.465 C 170.979 157.828,171.110 157.265,171.058 157.213 C 171.006 157.161,170.796 157.645,170.590 158.288 M176.415 157.360 C 176.350 157.533,175.247 160.824,173.965 164.673 L 171.633 171.670 168.973 171.734 L 166.313 171.798 166.459 171.170 C 166.567 170.705,166.546 170.630,166.376 170.880 C 165.589 172.044,165.950 172.235,168.932 172.235 L 171.724 172.235 174.266 164.777 C 175.664 160.675,176.746 157.258,176.671 157.183 C 176.596 157.107,176.481 157.188,176.415 157.360 M187.069 158.288 C 186.863 158.930,186.732 159.494,186.778 159.540 C 186.824 159.585,187.035 159.102,187.246 158.465 C 187.458 157.828,187.588 157.265,187.537 157.213 C 187.485 157.161,187.274 157.645,187.069 158.288 M266.612 158.877 C 267.088 160.243,266.744 161.996,265.023 166.986 L 263.369 171.783 260.691 171.783 C 259.057 171.783,258.014 171.871,258.014 172.009 C 258.014 172.147,259.100 172.235,260.821 172.235 L 263.628 172.235 265.359 167.002 C 267.167 161.534,267.502 159.285,266.635 158.418 C 266.410 158.193,266.406 158.286,266.612 158.877 M154.993 161.765 C 154.547 163.099,154.220 164.228,154.267 164.275 C 154.314 164.322,154.718 163.270,155.165 161.937 C 155.611 160.604,155.938 159.474,155.891 159.427 C 155.844 159.380,155.440 160.432,154.993 161.765 M209.063 160.239 C 209.045 160.780,208.244 163.604,207.284 166.515 L 205.538 171.808 202.769 171.739 C 200.633 171.686,199.999 171.737,200.000 171.959 C 200.000 172.182,200.653 172.234,202.853 172.185 L 205.707 172.122 207.355 167.269 C 209.062 162.243,209.362 161.046,209.195 159.919 C 209.120 159.413,209.089 159.489,209.063 160.239 M217.631 160.271 C 217.593 162.404,218.951 163.668,222.235 164.555 C 223.228 164.824,224.320 165.242,224.661 165.485 C 225.136 165.824,225.282 165.853,225.282 165.610 C 225.282 165.103,224.847 164.869,222.686 164.216 C 219.129 163.140,218.400 162.596,217.934 160.670 C 217.674 159.598,217.644 159.558,217.631 160.271 M166.540 162.796 L 165.765 165.124 162.641 165.237 L 159.518 165.350 158.465 168.510 L 157.412 171.670 154.740 171.734 C 152.754 171.782,152.020 171.724,151.884 171.509 C 151.758 171.310,151.699 171.378,151.696 171.727 C 151.693 172.228,151.735 172.235,154.605 172.235 L 157.516 172.235 158.106 170.598 C 158.431 169.698,158.933 168.251,159.222 167.381 L 159.748 165.801 162.814 165.739 L 165.881 165.676 166.711 163.185 C 167.168 161.815,167.490 160.643,167.428 160.581 C 167.366 160.519,166.967 161.516,166.540 162.796 M192.641 161.270 C 191.608 161.720,191.089 162.746,189.525 167.434 L 188.111 171.670 185.451 171.734 L 182.792 171.798 182.938 171.170 C 183.046 170.705,183.024 170.630,182.855 170.880 C 182.067 172.045,182.427 172.235,185.421 172.235 L 188.224 172.235 189.601 168.115 C 191.162 163.448,191.680 162.394,192.714 161.790 C 193.681 161.225,194.303 161.437,194.420 162.370 L 194.510 163.093 194.546 162.291 C 194.605 160.995,194.008 160.675,192.641 161.270 M201.580 161.108 C 200.317 161.569,199.763 162.617,198.060 167.777 L 196.737 171.783 194.192 171.783 C 192.793 171.783,191.648 171.694,191.648 171.586 C 191.648 171.477,191.801 170.954,191.989 170.422 C 192.176 169.890,192.289 169.415,192.240 169.366 C 192.114 169.239,191.422 171.323,191.422 171.830 C 191.422 172.218,191.622 172.244,194.156 172.185 L 196.890 172.122 198.428 167.665 C 200.117 162.774,200.530 162.009,201.692 161.625 C 202.568 161.337,202.876 161.448,203.162 162.156 C 203.344 162.608,203.358 162.600,203.372 162.028 C 203.392 161.178,202.558 160.750,201.580 161.108 M249.692 161.512 C 249.598 163.241,249.659 163.205,246.813 163.205 C 244.476 163.205,244.244 163.168,244.244 162.793 C 244.244 161.316,241.487 160.920,239.856 162.163 C 238.921 162.877,238.241 164.086,238.059 165.360 L 237.932 166.253 238.260 165.267 C 239.342 162.008,244.018 160.334,244.018 163.205 C 244.018 163.633,244.169 163.657,246.830 163.657 L 249.641 163.657 249.782 162.902 C 249.860 162.488,249.880 161.853,249.827 161.492 L 249.729 160.835 249.692 161.512 M258.342 161.594 C 257.289 162.237,256.936 162.949,255.425 167.476 L 254.025 171.670 251.365 171.734 L 248.706 171.798 248.852 171.170 C 248.960 170.705,248.938 170.630,248.769 170.880 C 247.981 172.045,248.341 172.235,251.336 172.235 L 254.139 172.235 255.430 168.341 C 257.361 162.520,258.024 161.533,259.907 161.670 L 260.835 161.738 260.799 162.754 C 260.773 163.486,260.816 163.644,260.952 163.318 C 261.719 161.493,260.178 160.475,258.342 161.594 M275.064 161.914 C 273.995 162.520,272.936 164.130,272.795 165.366 L 272.694 166.253 273.027 165.235 C 274.166 161.744,278.630 160.495,279.068 163.544 C 279.154 164.149,279.168 164.130,279.199 163.364 C 279.271 161.521,277.102 160.760,275.064 161.914 M284.699 162.867 C 283.117 172.417,268.008 176.256,267.256 167.299 L 267.111 165.576 267.077 167.107 C 266.894 175.322,280.005 174.418,284.098 165.933 C 284.631 164.828,285.227 162.113,285.051 161.588 C 285.000 161.433,284.842 162.009,284.699 162.867 M293.123 161.914 C 292.054 162.520,290.995 164.130,290.854 165.366 L 290.753 166.253 291.085 165.235 C 292.225 161.744,296.689 160.495,297.126 163.544 C 297.213 164.149,297.227 164.130,297.257 163.364 C 297.330 161.521,295.161 160.760,293.123 161.914 M302.758 162.867 C 301.176 172.417,286.067 176.256,285.315 167.299 L 285.170 165.576 285.136 167.107 C 284.953 175.322,298.063 174.418,302.156 165.933 C 302.689 164.828,303.285 162.113,303.110 161.588 C 303.059 161.433,302.900 162.009,302.758 162.867 M230.820 162.264 C 230.905 162.429,231.056 162.835,231.156 163.167 C 231.302 163.651,231.342 163.678,231.358 163.305 C 231.368 163.049,231.217 162.643,231.022 162.402 C 230.826 162.161,230.736 162.099,230.820 162.264 M233.285 163.001 C 233.086 163.385,232.964 163.739,233.013 163.788 C 233.062 163.837,233.271 163.523,233.477 163.090 C 233.942 162.116,233.781 162.042,233.285 163.001 M268.048 163.001 C 267.849 163.385,267.727 163.739,267.776 163.788 C 267.825 163.837,268.034 163.523,268.240 163.090 C 268.705 162.116,268.544 162.042,268.048 163.001 M286.107 163.001 C 285.908 163.385,285.786 163.739,285.835 163.788 C 285.884 163.837,286.093 163.523,286.299 163.090 C 286.763 162.116,286.602 162.042,286.107 163.001 M231.302 164.259 C 231.219 164.342,231.150 164.672,231.149 164.992 C 231.135 168.615,226.185 172.237,221.252 172.234 C 217.274 172.231,215.449 171.009,215.122 168.130 L 214.960 166.704 214.929 167.897 C 214.846 171.124,216.847 172.686,221.067 172.686 C 226.682 172.686,230.715 169.682,231.444 164.955 C 231.578 164.085,231.561 164.000,231.302 164.259 M259.395 167.296 C 258.887 168.816,258.510 170.097,258.557 170.144 C 258.604 170.191,259.058 168.987,259.566 167.467 C 260.075 165.947,260.452 164.666,260.405 164.619 C 260.358 164.572,259.904 165.776,259.395 167.296 M232.311 167.107 C 232.147 175.073,245.891 174.221,248.827 166.084 C 249.092 165.350,248.649 165.686,248.112 166.626 C 244.026 173.780,233.172 174.284,232.512 167.350 L 232.343 165.576 232.311 167.107 M131.771 192.526 C 129.372 193.667,128.698 194.205,129.591 194.266 C 129.766 194.278,130.092 194.366,130.315 194.463 C 131.643 195.038,133.569 194.142,134.337 192.590 C 135.052 191.144,134.695 191.135,131.771 192.526 " stroke="none" fill="#7ca49c" fill-rule="evenodd"></path></g></svg>