<?xml version="1.0" standalone="no"?>
<!DOCTYPE svg PUBLIC "-//W3C//DTD SVG 20010904//EN"
 "http://www.w3.org/TR/2001/REC-SVG-20010904/DTD/svg10.dtd">
<svg version="1.0" xmlns="http://www.w3.org/2000/svg"
 width="1433.000000pt" height="715.000000pt" viewBox="0 0 1433.000000 715.000000"
 preserveAspectRatio="xMidYMid meet">
<metadata>
Created by potrace 1.16, written by Peter Selinger 2001-2019
</metadata>
<g transform="translate(0.000000,715.000000) scale(0.100000,-0.100000)"
fill="#000000" stroke="none">
<path d="M3235 3940 c-18 -20 -29 -20 -374 -20 -196 1 -375 1 -398 0 -37 0
-41 -2 -36 -21 3 -12 -2 -32 -14 -47 -11 -15 -23 -36 -26 -46 -4 -11 -29 -56
-56 -100 -53 -89 -96 -165 -119 -211 -9 -16 -19 -32 -22 -35 -10 -7 -150 -261
-150 -271 0 -4 12 -9 27 -11 21 -2 34 -15 57 -59 17 -30 42 -73 55 -95 13 -21
36 -61 51 -89 48 -89 82 -150 91 -161 5 -6 20 -31 34 -55 51 -92 91 -163 112
-203 17 -31 22 -36 22 -20 1 12 7 27 14 33 10 7 134 12 397 13 l384 3 6 25 c4
14 21 48 38 75 17 28 45 77 63 110 17 33 35 62 39 65 7 5 31 46 93 160 65 120
75 136 101 174 14 21 26 43 26 48 0 6 9 21 20 35 23 30 26 47 6 40 -17 -7 -66
28 -66 46 0 12 -50 101 -187 334 -45 78 -83 146 -83 151 0 5 -10 22 -22 38
-13 16 -32 48 -44 71 -20 43 -21 43 -39 23z"/>
<path d="M8520 3195 c-6 -16 -72 -208 -145 -425 -73 -217 -136 -403 -140 -412
-6 -15 -20 -18 -91 -18 -79 0 -84 1 -84 21 0 16 -4 19 -17 13 -10 -4 -49 -18
-88 -32 -143 -50 -288 -10 -343 93 -9 17 -19 64 -22 105 l-7 75 -1 -75 c-2
-85 17 -138 64 -182 78 -73 237 -78 387 -13 12 5 17 3 17 -9 0 -15 12 -16 96
-14 l96 3 149 440 c82 241 148 444 145 450 -2 5 -9 -3 -16 -20z"/>
<path d="M4130 3051 c0 -98 -4 -161 -10 -161 -14 0 -40 -55 -40 -85 0 -24 2
-25 61 -25 49 0 87 9 107 25 1 1 -3 15 -9 31 -12 30 -31 122 -49 229 -12 75
-33 138 -48 143 -9 3 -12 -39 -12 -157z"/>
<path d="M6341 3078 c65 -120 -20 -329 -174 -431 -82 -55 -160 -77 -270 -77
l-93 0 -37 -115 -38 -115 -120 0 c-65 0 -119 1 -119 3 0 1 40 124 90 272 49
148 88 270 86 272 -5 5 -186 -536 -186 -555 0 -9 33 -12 129 -12 l130 0 37
114 38 114 115 4 c106 3 122 6 184 35 163 77 285 272 261 418 -6 39 -30 95
-40 95 -2 0 1 -10 7 -22z"/>
<path d="M6886 2959 c-7 -19 -24 -67 -37 -106 l-23 -73 -70 0 c-81 0 -126 -20
-149 -67 -8 -15 -40 -106 -71 -200 l-58 -173 -115 0 -115 0 6 28 c5 20 4 23
-4 12 -5 -8 -10 -25 -10 -37 0 -23 2 -23 124 -23 l124 0 61 180 c33 99 68 192
78 206 24 37 71 54 146 54 l64 0 38 110 c20 61 35 114 31 117 -3 3 -12 -9 -20
-28z"/>
<path d="M10882 2973 c-5 -10 -55 -156 -111 -325 l-103 -308 -115 0 -115 0 6
28 c5 20 4 23 -4 12 -5 -8 -10 -25 -10 -37 0 -23 2 -23 124 -23 l123 0 113
330 c62 182 110 333 107 336 -3 3 -10 -3 -15 -13z"/>
<path d="M9154 2779 c-73 -217 -110 -288 -185 -352 -187 -160 -486 -137 -528
40 -13 54 -3 119 38 237 12 33 19 61 17 64 -3 2 -19 -40 -37 -95 -43 -133 -45
-222 -6 -281 40 -62 93 -85 203 -90 97 -5 170 10 248 50 57 29 138 110 170
168 33 60 168 460 156 460 -4 0 -38 -90 -76 -201z"/>
<path d="M12389 2917 c23 -61 13 -117 -66 -349 l-77 -228 -113 0 c-62 0 -113
4 -113 8 0 4 22 75 50 157 27 82 48 150 46 152 -5 6 -106 -298 -106 -320 0
-15 13 -17 124 -17 l125 0 76 232 c71 215 77 237 73 300 -2 37 -9 73 -16 80
-11 11 -11 8 -3 -15z"/>
<path d="M7556 2875 c33 -82 15 -199 -49 -308 -38 -64 -147 -161 -219 -195
-203 -96 -418 -53 -474 93 -22 59 -15 149 19 235 14 36 19 56 11 45 -25 -33
-54 -144 -54 -206 0 -98 41 -168 125 -212 56 -29 209 -36 291 -12 196 57 340
209 374 394 12 69 1 153 -25 187 -12 15 -12 11 1 -21z"/>
<path d="M11606 2875 c33 -82 15 -199 -49 -308 -38 -64 -147 -161 -219 -195
-203 -96 -418 -53 -474 93 -22 59 -15 149 19 235 14 36 19 56 11 45 -25 -33
-54 -144 -54 -206 0 -98 41 -168 125 -212 56 -29 209 -36 291 -12 196 57 340
209 374 394 12 69 1 153 -25 187 -12 15 -12 11 1 -21z"/>
<path d="M9990 2846 c-6 -20 -9 -40 -5 -46 3 -5 29 -10 57 -10 36 0 49 -4 45
-12 -2 -7 -23 -71 -47 -143 -46 -144 -50 -204 -13 -253 37 -52 76 -63 207 -60
l118 3 34 94 c32 88 42 133 27 118 -3 -4 -21 -48 -38 -99 l-33 -93 -119 0
c-128 0 -155 8 -189 60 -32 50 -29 92 21 245 26 80 50 151 52 158 4 9 -11 12
-56 12 l-61 0 11 26 c5 15 8 29 5 31 -2 2 -9 -12 -16 -31z"/>
<path d="M9946 2828 c3 -21 2 -54 -2 -73 l-6 -36 -112 3 c-102 3 -111 5 -114
23 -10 51 -72 76 -137 55 -107 -35 -180 -177 -124 -241 l20 -24 -16 27 c-31
51 14 153 88 198 65 40 157 16 157 -40 0 -19 7 -20 124 -20 120 0 124 1 130
23 8 30 6 87 -5 117 -7 20 -7 17 -3 -12z"/>
<path d="M12050 2809 c-67 -27 -87 -64 -164 -296 l-58 -173 -115 0 -115 0 6
28 c5 20 4 23 -4 12 -5 -8 -10 -25 -10 -37 0 -23 2 -23 124 -23 l124 0 58 173
c31 94 65 188 75 208 27 55 73 89 119 89 43 0 55 -17 45 -67 -4 -23 -4 -24 4
-8 5 11 10 34 10 52 1 48 -40 65 -99 42z"/>
<path d="M9226 2733 c-45 -88 -59 -223 -30 -291 38 -91 111 -134 240 -140 139
-7 248 32 356 128 61 53 144 180 119 180 -5 0 -21 -20 -36 -45 -133 -228 -472
-321 -621 -171 -71 71 -82 178 -31 304 26 65 28 82 3 35z"/>
<path d="M12689 2608 c-15 -29 -24 -67 -27 -118 -3 -66 -1 -79 20 -110 13 -19
43 -45 68 -58 41 -21 55 -23 150 -19 75 2 122 10 165 25 51 19 60 20 68 7 6
-12 32 -15 132 -15 80 0 125 4 125 10 0 14 -39 90 -45 90 -3 0 4 -18 15 -40
l20 -40 -114 0 c-104 0 -116 2 -126 20 -10 19 -12 18 -78 -7 -56 -22 -84 -27
-167 -27 -114 -1 -160 15 -198 68 -31 44 -31 153 1 214 12 23 20 42 17 42 -2
0 -14 -19 -26 -42z"/>
<path d="M7004 1840 c-50 -146 -117 -343 -148 -437 l-58 -173 -115 0 -115 0 6
28 c5 20 4 23 -4 12 -5 -8 -10 -25 -10 -37 0 -23 2 -23 125 -23 69 0 125 1
125 3 0 2 65 197 145 432 80 236 144 436 143 444 -2 9 -44 -103 -94 -249z"/>
<path d="M12644 1840 c-50 -146 -117 -343 -148 -437 l-58 -173 -115 0 -115 0
6 28 c5 20 4 23 -4 12 -5 -8 -10 -25 -10 -37 0 -23 2 -23 125 -23 69 0 125 1
125 3 0 2 65 197 145 432 80 236 144 436 143 444 -2 9 -44 -103 -94 -249z"/>
<path d="M6642 1863 c-5 -10 -55 -156 -111 -325 l-103 -308 -115 0 -115 0 6
28 c5 20 4 23 -4 12 -5 -8 -10 -25 -10 -37 0 -23 2 -23 124 -23 l123 0 113
330 c62 182 110 333 107 336 -3 3 -10 -3 -15 -13z"/>
<path d="M10639 1807 c23 -61 13 -117 -66 -349 l-77 -228 -113 0 c-62 0 -113
4 -113 8 0 4 22 75 50 157 27 82 48 150 46 152 -5 6 -106 -298 -106 -320 0
-15 13 -17 124 -17 l125 0 76 232 c71 215 77 237 73 300 -2 37 -9 73 -16 80
-11 11 -11 8 -3 -15z"/>
<path d="M11426 1765 c33 -82 15 -199 -49 -308 -38 -64 -147 -161 -219 -195
-203 -96 -418 -53 -474 93 -22 59 -15 149 19 235 14 36 19 56 11 45 -25 -33
-54 -144 -54 -206 0 -98 41 -168 125 -212 56 -29 209 -36 291 -12 196 57 340
209 374 394 12 69 1 153 -25 187 -12 15 -12 11 1 -21z"/>
<path d="M12226 1765 c33 -82 15 -199 -49 -308 -38 -64 -147 -161 -219 -195
-203 -96 -418 -53 -474 93 -22 59 -15 149 19 235 14 36 19 56 11 45 -25 -33
-54 -144 -54 -206 0 -98 41 -168 125 -212 56 -29 209 -36 291 -12 196 57 340
209 374 394 12 69 1 153 -25 187 -12 15 -12 11 1 -21z"/>
<path d="M5641 1508 c-50 -150 -91 -279 -91 -286 0 -9 32 -12 129 -12 l129 0
26 73 c14 39 37 104 50 142 l23 70 136 3 136 3 36 110 c21 61 34 113 31 116
-6 7 -6 7 -44 -107 l-29 -85 -138 -5 -138 -5 -50 -147 -49 -148 -119 0 c-65 0
-119 1 -119 3 0 1 40 124 90 272 49 148 88 270 86 272 -2 3 -45 -119 -95 -269z"/>
<path d="M9886 1718 c3 -21 2 -54 -2 -73 l-6 -36 -112 3 c-102 3 -111 5 -114
23 -10 51 -72 76 -137 55 -107 -35 -180 -177 -124 -241 l20 -24 -16 27 c-31
51 14 153 88 198 65 40 157 16 157 -40 0 -19 7 -20 124 -20 120 0 124 1 130
23 8 30 6 87 -5 117 -7 20 -7 17 -3 -12z"/>
<path d="M7364 1700 c-46 -18 -72 -70 -139 -270 l-67 -200 -115 0 -115 0 6 28
c5 20 4 23 -4 12 -5 -8 -10 -25 -10 -37 0 -23 2 -23 124 -23 l124 0 61 183
c34 100 71 200 84 221 41 74 127 99 127 37 0 -15 -18 -80 -40 -146 -22 -65
-38 -120 -36 -123 3 -2 25 61 51 139 38 116 45 147 36 166 -11 24 -46 30 -87
13z"/>
<path d="M7733 1690 c-43 -26 -55 -53 -128 -270 l-62 -185 -111 -3 c-63 -1
-112 1 -112 6 0 5 7 29 15 52 8 24 13 45 11 47 -5 6 -36 -87 -36 -109 0 -17 9
-18 121 -16 l121 3 68 197 c38 109 78 211 89 227 12 16 37 35 57 41 31 10 39
10 52 -4 15 -15 12 -31 -45 -203 -35 -103 -61 -188 -59 -191 6 -5 126 360 126
384 0 46 -52 58 -107 24z"/>
<path d="M10300 1699 c-67 -27 -87 -64 -164 -296 l-58 -173 -115 0 -115 0 6
28 c5 20 4 23 -4 12 -5 -8 -10 -25 -10 -37 0 -23 2 -23 124 -23 l124 0 58 173
c66 201 82 235 125 271 25 22 40 26 73 24 l41 -3 -2 -45 c-1 -32 1 -39 7 -25
33 78 -12 125 -90 94z"/>
<path d="M9054 1650 c10 -15 16 -47 16 -81 0 -112 -91 -244 -209 -303 -139
-71 -325 -75 -424 -10 -68 45 -93 143 -62 239 6 19 6 19 -5 2 -18 -29 -24
-129 -10 -171 31 -94 112 -136 263 -136 163 0 269 42 362 142 72 78 101 158
96 264 0 18 -10 42 -22 55 l-21 24 16 -25z"/>
<path d="M9166 1623 c-45 -88 -59 -223 -30 -291 38 -91 111 -134 240 -140 139
-7 248 32 356 128 61 53 144 180 119 180 -5 0 -21 -20 -36 -45 -133 -228 -472
-321 -621 -171 -71 71 -82 178 -31 304 26 65 28 82 3 35z"/>
</g>
</svg>
