<?xml version="1.0" standalone="no"?>
<!DOCTYPE svg PUBLIC "-//W3C//DTD SVG 20010904//EN"
 "http://www.w3.org/TR/2001/REC-SVG-20010904/DTD/svg10.dtd">
<svg version="1.0" xmlns="http://www.w3.org/2000/svg"
 width="294.000000pt" height="172.000000pt" viewBox="0 0 294.000000 172.000000"
 preserveAspectRatio="xMidYMid meet">

<g transform="translate(0.000000,172.000000) scale(0.100000,-0.100000)"
fill="#000000" stroke="none">
<path d="M1350 1690 c-25 -5 -304 -66 -620 -136 -648 -142 -644 -140 -692
-233 l-28 -53 0 -387 c0 -224 4 -401 10 -422 14 -51 73 -115 123 -133 23 -9
303 -75 622 -148 l580 -132 130 0 130 1 599 137 c643 147 642 147 694 223 l27
38 3 417 c2 371 1 421 -14 450 -28 57 -75 98 -129 113 -27 8 -306 71 -620 140
-598 132 -702 148 -815 125z m329 -478 c72 -53 93 -146 48 -213 -27 -41 -98
-79 -147 -79 -59 0 -122 38 -147 90 -13 24 -23 56 -23 70 0 14 10 46 23 70 31
63 91 93 166 86 31 -3 66 -13 80 -24z m-818 -24 l1 -43 19 43 20 42 64 0 c36
0 65 -3 65 -6 0 -3 -16 -34 -35 -68 -19 -35 -35 -68 -35 -74 0 -7 18 -41 40
-77 22 -36 40 -68 40 -70 0 -3 -29 -5 -65 -5 l-65 0 -24 48 -25 47 -1 -47 0
-48 -60 0 -60 0 0 150 0 150 60 0 60 0 1 -42z m361 -15 l33 -58 3 58 3 57 54
0 55 0 0 -150 0 -150 -65 0 -65 0 -27 53 -28 52 -3 -52 -3 -53 -60 0 -59 0 0
150 0 150 64 0 64 0 34 -57z m674 -3 c4 -33 10 -60 14 -60 4 0 12 26 16 58 l9
57 55 0 55 0 9 -52 c5 -29 12 -53 16 -53 4 0 11 25 15 55 l6 55 60 0 c33 0 59
-4 59 -10 0 -9 -39 -199 -55 -267 -5 -21 -11 -23 -70 -23 l-64 0 -10 38 c-6
20 -11 47 -11 60 0 35 -17 17 -24 -25 -14 -75 -12 -73 -82 -73 -35 0 -64 1
-64 3 0 2 -13 65 -30 140 -16 76 -30 142 -30 147 0 6 27 10 60 10 l59 0 7 -60z
m-989 -391 c15 -6 36 -17 45 -26 16 -14 15 -18 -9 -54 -19 -29 -31 -38 -42
-33 -36 15 -59 15 -74 -1 -21 -21 -22 -49 -1 -69 22 -23 34 -20 34 9 0 24 3
25 55 25 l56 0 -3 -56 c-3 -48 -7 -60 -29 -77 -66 -48 -185 -23 -230 49 -29
48 -29 121 1 170 38 60 128 90 197 63z m613 -15 c52 -30 73 -65 74 -126 0 -64
-24 -113 -71 -141 -38 -22 -123 -32 -187 -23 l-46 7 0 149 c0 172 -9 160 116
156 58 -2 90 -8 114 -22z m634 6 c63 -31 81 -63 81 -142 0 -60 -3 -70 -30 -99
-58 -61 -135 -75 -211 -38 -116 56 -117 221 -1 278 53 26 109 27 161 1z m-906
-32 l-3 -43 -60 -6 -60 -6 58 -1 57 -2 0 -50 0 -50 -57 -2 -58 -1 65 -6 65 -6
3 -42 3 -43 -125 0 -126 0 0 150 0 150 121 0 120 0 -3 -42z m620 0 l-3 -43
-60 -6 -60 -6 58 -1 57 -2 0 -50 0 -50 -57 -2 -58 -1 65 -6 65 -6 3 -42 3 -43
-125 0 -126 0 0 150 0 150 121 0 120 0 -3 -42z m-600 -415 c3 -17 -2 -23 -17
-23 -11 0 -22 -8 -24 -17 -3 -10 -5 1 -6 25 -1 40 1 43 22 40 14 -2 23 -11 25
-25z m67 13 c-18 -13 -18 -13 1 -24 17 -10 17 -11 2 -12 -26 0 -22 -18 5 -23
19 -4 18 -4 -5 -6 -26 -1 -28 2 -28 39 0 34 3 40 22 40 21 0 21 -1 3 -14z
m119 -2 c19 -18 19 -20 6 -45 -18 -33 -70 -18 -70 21 0 19 19 40 36 40 7 0 20
-7 28 -16z m95 7 c17 -11 7 -41 -14 -41 -8 0 -15 -7 -15 -15 0 -8 -4 -15 -10
-15 -11 0 -14 63 -3 73 9 9 25 8 42 -2z m61 -25 c0 -24 5 -36 18 -39 10 -3 6
-5 -10 -6 -26 -1 -28 2 -28 39 0 22 5 40 10 40 6 0 10 -15 10 -34z m98 27
c-20 -5 -24 -33 -5 -34 10 0 10 -2 0 -6 -18 -7 -16 -21 5 -26 10 -3 6 -5 -10
-6 -26 -1 -28 2 -28 39 0 37 2 40 28 39 16 -1 20 -3 10 -6z"/>
<path d="M1558 1119 c-25 -14 -24 -65 1 -79 29 -15 39 -13 57 15 15 23 15 27
0 50 -18 27 -31 30 -58 14z"/>
<path d="M1410 630 c0 -59 1 -61 23 -54 27 8 37 22 37 54 0 32 -10 46 -37 54
-22 7 -23 5 -23 -54z"/>
<path d="M2046 664 c-9 -8 -16 -24 -16 -34 0 -22 25 -50 45 -50 20 0 45 28 45
50 0 22 -25 50 -45 50 -7 0 -21 -7 -29 -16z"/>
<path d="M1236 333 c-11 -11 -6 -23 9 -23 8 0 15 4 15 9 0 13 -16 22 -24 14z"/>
<path d="M1409 324 c-10 -12 -9 -18 3 -31 19 -18 38 -10 38 17 0 24 -25 33
-41 14z"/>
<path d="M1520 325 c0 -8 5 -15 10 -15 6 0 10 7 10 15 0 8 -4 15 -10 15 -5 0
-10 -7 -10 -15z"/>
</g>
</svg>
